/* XPM */
static char *_5d5429a03924f42eeaf69616a91aa82Y5MR8tl8uz1CPwgD[] = {
/* columns rows colors chars-per-pixel */
"32 32 169 2 ",
"   c #183D1A",
".  c #202C1F",
"X  c #2B3E16",
"o  c #363A11",
"O  c #4F2B01",
"+  c #532D01",
"@  c #45370A",
"#  c #563106",
"$  c #5E3708",
"%  c #673801",
"&  c #743F00",
"*  c #613E14",
"=  c #482933",
"-  c #552F35",
";  c #5B3137",
":  c #5E3338",
">  c #6F3A2E",
",  c #643539",
"<  c #6C3A3A",
"1  c #773F34",
"2  c #733D3B",
"3  c #16431F",
"4  c #07531E",
"5  c #075A1E",
"6  c #097110",
"7  c #074626",
"8  c #065327",
"9  c #085E22",
"0  c #3F5B20",
"q  c #076722",
"w  c #09742A",
"e  c #087D2E",
"r  c #086C38",
"t  c #077235",
"y  c #087336",
"u  c #23642D",
"i  c #28642B",
"p  c #59470D",
"a  c #505719",
"s  c #515919",
"d  c #754003",
"f  c #7D4401",
"g  c #7B4807",
"h  c #7D4809",
"j  c #69530E",
"k  c #6A4314",
"l  c #764819",
"z  c #6A5410",
"x  c #405E20",
"c  c #7A4824",
"v  c #704832",
"b  c #7B4439",
"n  c #6E4C48",
"m  c #774441",
"M  c #7E4B45",
"N  c #804601",
"B  c #864A01",
"V  c #8A4B00",
"C  c #864D09",
"Z  c #8D520A",
"A  c #915306",
"S  c #935409",
"D  c #8A5817",
"F  c #825219",
"G  c #985A15",
"H  c #935C1C",
"J  c #A26319",
"K  c #B7701A",
"L  c #8D5927",
"P  c #92532F",
"I  c #894B31",
"U  c #945A37",
"Y  c #A25C20",
"T  c #A75934",
"R  c #976327",
"E  c #9D6320",
"W  c #9D6728",
"Q  c #9E6C2B",
"!  c #9D6838",
"~  c #A96B22",
"^  c #A76328",
"/  c #A56C29",
"(  c #A9722C",
")  c #B17625",
"_  c #B4762D",
"`  c #A56A36",
"'  c #A96E35",
"]  c #AF7137",
"[  c #B77737",
"{  c #B87538",
"}  c #C37D1B",
"|  c #C6662A",
" . c #DB7626",
".. c #C76F30",
"X. c #DF763B",
"o. c #E47522",
"O. c #E57B26",
"+. c #EC7B26",
"@. c #F87A23",
"#. c #996B55",
"$. c #A57553",
"%. c #B07852",
"&. c #B67B63",
"*. c #0A8201",
"=. c #0B8C03",
"-. c #0A800B",
";. c #0B9301",
":. c #0C9608",
">. c #0DA507",
",. c #0EAF0E",
"<. c #0EB703",
"1. c #0DB30D",
"2. c #18B00C",
"3. c #0BA019",
"4. c #25AC1B",
"5. c #28AD1E",
"6. c #09832B",
"7. c #0A9320",
"8. c #0EC303",
"9. c #0EC800",
"0. c #1AD30C",
"q. c #25D818",
"w. c #2BE41D",
"e. c #37CE2B",
"r. c #38D32D",
"t. c #38DB2C",
"y. c #3CD130",
"u. c #35ED27",
"i. c #37EB29",
"p. c #38F12A",
"a. c #3DE330",
"s. c #3FEA32",
"d. c #3FF731",
"f. c #40EC32",
"g. c #40F332",
"h. c #42FA34",
"j. c #B78A3F",
"k. c #C7852F",
"l. c #D28922",
"z. c #CA8736",
"x. c #D28D34",
"c. c #D79137",
"v. c #DA9236",
"b. c #E98428",
"n. c #F98427",
"m. c #FA8E2A",
"M. c #FA922B",
"N. c #FA9931",
"B. c #EDA12E",
"V. c #EFA433",
"C. c #FBA333",
"Z. c #F5AA37",
"A. c #FDAE35",
"S. c #FDB339",
"D. c #FEB93D",
"F. c #B7927A",
"G. c #C68F4F",
"H. c #C09243",
"J. c #D4AE50",
"K. c #EEA442",
"L. c #FBAF41",
"P. c #C18467",
"I. c #FECB4B",
"U. c #FED855",
"Y. c #FEDE59",
"T. c #FEE45F",
"R. c #FEE861",
"E. c #D6BE9C",
"W. c #E0C9A3",
/* pixels */
". y.p.h.h.h.h.h.h.h.h.h.h.h.h.h.h.h.h.h.h.h.h.h.h.h.d.h.h.h.r.. ",
"y.h.0.0.0.p.h.h.h.h.h.h.h.h.0.0.h.h.h.h.h.h.h.h.p.0.w.h.h.h.h.r.",
"h.h.9.1.,.8.9.9.9.9.i.p.8.1.e 1.9.9.,.3.u.u.w.1.1.1.1.9.9.9.0.g.",
"h.h.9.6.s 6.6.6.6.6.9.9.e s j u 6.6.e r 7.9.1.t j j y 6.6.<.0.h.",
"d.d.9.6.V V V V V x i i V V S V V V V V i i x V V V V V a 1.0.h.",
"h.w.1.t V V ~ D V V V V A ~ _ Z V V J V V V V J ~ A V V e 8.p.h.",
"h.0.,.z V S _ _ F V } l.x._ / C V ~ _ k.l.l.S _ _ _ ~ V 6.9.h.h.",
"h.p.,.z V ~ _ _ l 1 v.A.z.b b b b b b ' A.A.1 U _ _ D V 6.9.h.h.",
"h.h.1.y V J _ _ l , v.D...< , , , 2 < W S.S., c F F V V 6.9.h.h.",
"h.h.w.1.0 V S ) ~ , J.T.H.; : : ; < ; #.Y.I.; L } A C x 6.9.h.h.",
"h.h.p.9.i B V B.v.b J.R.J.< 2 2 2 2 2 $.R.R.2 { A.S V i 9.u.h.h.",
"h.h.u.7.i B B B.c.< v.S.z.< 2 < < < < ` A.A.< [ A.A V i 9.p.h.h.",
"h.h.3.r B B / V.x.- x.A.j.- < - - - - ! A.A.- ' A._ A C e 8.h.h.",
"h.h.1.6.V H Q V.v.2 v.A...2 2 2 2 2 2 T C.m.2 { A.( E B s ,.h.h.",
"h.h.9.6.B B R B.x.= | @.| - = = , 2 < I @.@.= / U.Q / Z z e 0.h.",
"h.h.9.6.B f d B.v.v  .n.| v v v v v v Y n.n.v j.Y.F C B u 1.0.h.",
"d.0.,.u B C & b.M.M.M.m.M.M.M.m.m.m.M.M.m.M.N.L.L.C f B 6.9.h.h.",
"d.0.6.z Z / L Y X.T > > > > > C.C.P > > > > I X.^ D f B 6.9.h.h.",
"h.h.,.s B E R  .Z.! , < : : 2 A.L.U , - 2 < v Z.@.^ D B e ,.h.h.",
"h.h.8.e N C E o.A.' < 2 : , 2 %.G.I < , 2 2 v A.n.^ g B r 3.h.h.",
"h.h.p.9.i f & G A.{ 2 2 , : F.n #.&.m , 2 2 I S.K & f u 7.i.h.h.",
"h.h.u.9.i N & h A.` < 2 2 < E.E.W.W.M - 2 2 U A.Z & f i 9.i.h.h.",
"h.h.9.6.x N & g A.` , 2 , , &.&.&.&.m - 2 2 v A.D N B x 1.w.h.h.",
"h.h.9.6.V N k ) A.x.] { ] ' P.&.#.F.%.' { { [ A.H./ H V y 1.h.h.",
"h.h.9.6.B F W V.A.A.A.A.A.A.K.K.K.K.S.I.I.Y.D.U.R.( E B z ,.p.h.",
"h.h.8.6.C E W  .+.o.o.o.o.o.o.o.o.o.o.O.o.o.o.O.b./ C B z 1.0.h.",
"h.d.8.e V N g F k + O + + $ + O # k * + O + # $ k H N B y 1.w.d.",
"h.0.1.s V N d & % X 3 3 + + + + + # + O     X % & d f V 6.9.h.h.",
"d.0.1.e 6.r p p 8 6 =.5 7 4 4 4 3 @ o 8 *.*.5 q q w w a 6.9.h.h.",
"d.0.9.9.9.,.:.:.=.4.4.4.6 -.;.=.-.9 6 =.5.5.;.;.>.<.1.,.1.9.h.h.",
"r.h.h.h.h.q.0.t.t.r.e.e.r.r.e.e.2.2.r.r.r.e.r.r.a.s.i.0.0.0.h.y.",
". y.h.h.h.g.d.s.s.a.a.a.a.a.a.a.a.a.a.a.a.a.a.s.f.g.h.d.d.d.y.. "
};
