/* XPM */
static char * coin_xpm[] = {
"32 32 522 2",
"  	c None",
". 	c #84654D",
"+ 	c #906A4E",
"@ 	c #765A45",
"# 	c #7E6844",
"$ 	c #A08548",
"% 	c #6F5D3F",
"& 	c #5A4739",
"* 	c #5D4A3C",
"= 	c #775C46",
"- 	c #5F4D3F",
"; 	c #5B4739",
"> 	c #5C4C3E",
", 	c #775C48",
"' 	c #705844",
") 	c #614D3D",
"! 	c #5C493B",
"~ 	c #58463A",
"{ 	c #755A44",
"] 	c #695240",
"^ 	c #574538",
"/ 	c #6F5340",
"( 	c #735742",
"_ 	c #695341",
": 	c #6D5644",
"< 	c #584538",
"[ 	c #5D4C3F",
"} 	c #775D48",
"| 	c #705642",
"1 	c #665140",
"2 	c #88664D",
"3 	c #83674E",
"4 	c #86654D",
"5 	c #6E5441",
"6 	c #5F4C3D",
"7 	c #756140",
"8 	c #A58443",
"9 	c #8E7844",
"0 	c #6A553D",
"a 	c #5D4A3B",
"b 	c #5E493A",
"c 	c #4B4036",
"d 	c #5D493B",
"e 	c #5D4839",
"f 	c #604A3A",
"g 	c #624C3C",
"h 	c #614B3B",
"i 	c #5F4A3B",
"j 	c #5D493A",
"k 	c #5A4537",
"l 	c #5B493B",
"m 	c #604B3C",
"n 	c #5F4A3C",
"o 	c #604C3C",
"p 	c #5C483A",
"q 	c #5F4C3C",
"r 	c #664F3E",
"s 	c #7C5F49",
"t 	c #8D684E",
"u 	c #88694E",
"v 	c #6B5341",
"w 	c #604B3B",
"x 	c #796440",
"y 	c #9B7B42",
"z 	c #8D7241",
"A 	c #A48B48",
"B 	c #5E4939",
"C 	c #7B6841",
"D 	c #52453B",
"E 	c #5D4739",
"F 	c #624C3D",
"G 	c #5E4839",
"H 	c #604A3B",
"I 	c #604A3C",
"J 	c #5F493A",
"K 	c #634D3D",
"L 	c #614B3C",
"M 	c #634C3C",
"N 	c #80634B",
"O 	c #87694E",
"P 	c #82624B",
"Q 	c #564337",
"R 	c #7F6A41",
"S 	c #9B7E43",
"T 	c #8B6A3A",
"U 	c #A48441",
"V 	c #AF8E44",
"W 	c #9C8344",
"X 	c #74603D",
"Y 	c #644E3E",
"Z 	c #5D4738",
"` 	c #6A5442",
" .	c #7E634D",
"..	c #6C5341",
"+.	c #5F4B3B",
"@.	c #A28442",
"#.	c #674730",
"$.	c #7D5832",
"%.	c #815A32",
"&.	c #B5994B",
"*.	c #8B7744",
"=.	c #75613E",
"-.	c #735F3D",
";.	c #5C4738",
">.	c #685141",
",.	c #5F4A3A",
"'.	c #5B4638",
").	c #654E3E",
"!.	c #5D483A",
"~.	c #6B5442",
"{.	c #83654D",
"].	c #674E3D",
"^.	c #704E2D",
"/.	c #4A3629",
"(.	c #553C2B",
"_.	c #533723",
":.	c #7A5C34",
"<.	c #775C3C",
"[.	c #77623F",
"}.	c #9E8346",
"|.	c #705C3D",
"1.	c #58473B",
"2.	c #7A5F49",
"3.	c #8F6A4E",
"4.	c #7E624B",
"5.	c #58473A",
"6.	c #584335",
"7.	c #4D3121",
"8.	c #5C422F",
"9.	c #443126",
"0.	c #402D23",
"a.	c #422D21",
"b.	c #5B4738",
"c.	c #73603D",
"d.	c #A58442",
"e.	c #8C7644",
"f.	c #5A493F",
"g.	c #4D3C3C",
"h.	c #52413B",
"i.	c #493E36",
"j.	c #5A483A",
"k.	c #5E4B3C",
"l.	c #7A614C",
"m.	c #5F493B",
"n.	c #3F2E24",
"o.	c #553A29",
"p.	c #463429",
"q.	c #48362A",
"r.	c #4C3B2E",
"s.	c #634D3C",
"t.	c #72643C",
"u.	c #8D783B",
"v.	c #7A7637",
"w.	c #5D8B21",
"x.	c #478815",
"y.	c #588125",
"z.	c #4B5F31",
"A.	c #575734",
"B.	c #71623C",
"C.	c #745F3E",
"D.	c #5D4939",
"E.	c #614C3C",
"F.	c #7E5E47",
"G.	c #805F48",
"H.	c #594638",
"I.	c #614A3B",
"J.	c #3C2920",
"K.	c #503D30",
"L.	c #5A4637",
"M.	c #634C3D",
"N.	c #7B6840",
"O.	c #817938",
"P.	c #5A7526",
"Q.	c #438F08",
"R.	c #63E300",
"S.	c #68ED00",
"T.	c #5CD100",
"U.	c #479503",
"V.	c #447A1E",
"W.	c #686738",
"X.	c #977D44",
"Y.	c #6F5B3D",
"Z.	c #57473A",
"`.	c #685240",
" +	c #7D634D",
".+	c #8E684D",
"++	c #654D3D",
"@+	c #604C3D",
"#+	c #5E4A3B",
"$+	c #624B3B",
"%+	c #5E493C",
"&+	c #79952A",
"*+	c #56B905",
"=+	c #62DF00",
"-+	c #68EB00",
";+	c #66E800",
">+	c #61DE01",
",+	c #5CCF03",
"'+	c #5C8326",
")+	c #937641",
"!+	c #8C7643",
"~+	c #6B553D",
"{+	c #4C4036",
"]+	c #5A4639",
"^+	c #785D47",
"/+	c #8A694E",
"(+	c #7F624B",
"_+	c #685340",
":+	c #664F3F",
"<+	c #5D493D",
"[+	c #538419",
"}+	c #42B700",
"|+	c #4EDD00",
"1+	c #63EB00",
"2+	c #5FE700",
"3+	c #50DB00",
"4+	c #47CE00",
"5+	c #548123",
"6+	c #876B40",
"7+	c #745F3F",
"8+	c #A48B47",
"9+	c #79663F",
"0+	c #51443A",
"a+	c #6D5745",
"b+	c #8B674C",
"c+	c #826149",
"d+	c #644D3C",
"e+	c #503E33",
"f+	c #3E6516",
"g+	c #34980E",
"h+	c #2DC301",
"i+	c #52D900",
"j+	c #5ADC00",
"k+	c #4DD500",
"l+	c #35C304",
"m+	c #3CA411",
"n+	c #747D2F",
"o+	c #7F613A",
"p+	c #645338",
"q+	c #AF8F45",
"r+	c #9E8446",
"s+	c #624D3D",
"t+	c #604E3F",
"u+	c #725642",
"v+	c #85654E",
"w+	c #89664D",
"x+	c #5E4A3C",
"y+	c #3A2C2A",
"z+	c #3F6619",
"A+	c #229F06",
"B+	c #31AB01",
"C+	c #48AE00",
"D+	c #44AE03",
"E+	c #39A012",
"F+	c #6C633B",
"G+	c #957941",
"H+	c #7E663A",
"I+	c #5A4839",
"J+	c #B6994B",
"K+	c #765B46",
"L+	c #745844",
"M+	c #393522",
"N+	c #444E2B",
"O+	c #57562C",
"P+	c #7C6229",
"Q+	c #7C642A",
"R+	c #786F35",
"S+	c #A78843",
"T+	c #A18440",
"U+	c #675531",
"V+	c #775D3D",
"W+	c #81644D",
"X+	c #513F3C",
"Y+	c #41333B",
"Z+	c #493339",
"`+	c #84462E",
" @	c #9E562C",
".@	c #8D4E2E",
"+@	c #573836",
"@@	c #5A4038",
"#@	c #937C43",
"$@	c #7F6B3C",
"%@	c #433126",
"&@	c #3F2D23",
"*@	c #432E21",
"=@	c #574537",
"-@	c #84634A",
";@	c #7E6049",
">@	c #5A4A3C",
",@	c #5C4439",
"'@	c #724634",
")@	c #7E4830",
"!@	c #7F452E",
"~@	c #AD622C",
"{@	c #BB6A2D",
"]@	c #A85F2E",
"^@	c #81452D",
"/@	c #79422E",
"(@	c #7A4B30",
"_@	c #724E31",
":@	c #423229",
"<@	c #463529",
"[@	c #4B392D",
"}@	c #7D634E",
"|@	c #84654C",
"1@	c #554437",
"2@	c #614C3D",
"3@	c #5C3E37",
"4@	c #935330",
"5@	c #AE5E2A",
"6@	c #AD5B29",
"7@	c #C67532",
"8@	c #CA7933",
"9@	c #C06F2F",
"0@	c #AF5D29",
"a@	c #A75A29",
"b@	c #96552F",
"c@	c #6F432A",
"d@	c #4C3B32",
"e@	c #5B483A",
"f@	c #8A674D",
"g@	c #87654D",
"h@	c #796340",
"i@	c #75613F",
"j@	c #77633F",
"k@	c #5C4239",
"l@	c #7D4D33",
"m@	c #9C582F",
"n@	c #AF612D",
"o@	c #B97032",
"p@	c #BB7232",
"q@	c #B86D30",
"r@	c #AF622C",
"s@	c #945630",
"t@	c #7E4A32",
"u@	c #694635",
"v@	c #5C473A",
"w@	c #765B45",
"x@	c #88684E",
"y@	c #816149",
"z@	c #544337",
"A@	c #9C8144",
"B@	c #9C8245",
"C@	c #5F4D3B",
"D@	c #5D4137",
"E@	c #824E33",
"F@	c #AF622E",
"G@	c #A5572A",
"H@	c #A45529",
"I@	c #AC5E29",
"J@	c #AC612D",
"K@	c #603B35",
"L@	c #624539",
"M@	c #604838",
"N@	c #6C5342",
"O@	c #83654E",
"P@	c #8B684E",
"Q@	c #6A5240",
"R@	c #715A42",
"S@	c #76613E",
"T@	c #A38242",
"U@	c #5A4E38",
"V@	c #5A493C",
"W@	c #6F4434",
"X@	c #9E542A",
"Y@	c #904226",
"Z@	c #8D3F26",
"`@	c #994B26",
" #	c #9B532A",
".#	c #3F2D3A",
"+#	c #53413B",
"@#	c #624B3C",
"##	c #584537",
"$#	c #765D48",
"%#	c #916A4E",
"&#	c #88674E",
"*#	c #684F3E",
"=#	c #624C3B",
"-#	c #78633F",
";#	c #997940",
">#	c #8C7140",
",#	c #9F8345",
"'#	c #5F503C",
")#	c #927B45",
"!#	c #613C33",
"~#	c #813E29",
"{#	c #823826",
"]#	c #853C26",
"^#	c #803E29",
"/#	c #41303A",
"(#	c #5B463D",
"_#	c #554337",
":#	c #846349",
"<#	c #7E624D",
"[#	c #5A473A",
"}#	c #8C6B3B",
"|#	c #A58542",
"1#	c #B39246",
"2#	c #B29548",
"3#	c #97783F",
"4#	c #A58543",
"5#	c #A58644",
"6#	c #80673F",
"7#	c #5E3431",
"8#	c #843C27",
"9#	c #893F25",
"0#	c #7C3828",
"a#	c #603131",
"b#	c #4C3A39",
"c#	c #594539",
"d#	c #89674D",
"e#	c #7F5F47",
"f#	c #584638",
"g#	c #A18341",
"h#	c #65452F",
"i#	c #7C5831",
"j#	c #805931",
"k#	c #C0A24C",
"l#	c #8D753D",
"m#	c #7F5932",
"n#	c #AC9149",
"o#	c #7A6440",
"p#	c #532D34",
"q#	c #522933",
"r#	c #533135",
"s#	c #583F38",
"t#	c #5F493C",
"u#	c #5C4739",
"v#	c #68513F",
"w#	c #8F694D",
"x#	c #664E3D",
"y#	c #704E2E",
"z#	c #4D392C",
"A#	c #573D2C",
"B#	c #543723",
"C#	c #7C5D31",
"D#	c #6C5331",
"E#	c #563C2B",
"F#	c #795C34",
"G#	c #735A3D",
"H#	c #543F3A",
"I#	c #543F3B",
"J#	c #57423A",
"K#	c #5D483B",
"L#	c #584639",
"M#	c #82624A",
"N#	c #795F4A",
"O#	c #64503F",
"P#	c #5A4436",
"Q#	c #5A402D",
"R#	c #3B2920",
"S#	c #3E271B",
"T#	c #563D2B",
"U#	c #85654D",
"V#	c #836149",
"W#	c #654E3D",
"X#	c #3F2F24",
"Y#	c #563A29",
"Z#	c #433227",
"`#	c #473529",
" $	c #34261D",
".$	c #513726",
"+$	c #4F3C2F",
"@$	c #82644D",
"#$	c #3E2C22",
"$$	c #5E483A",
"%$	c #523F31",
"&$	c #795A45",
"*$	c #936B4E",
"=$	c #84644B",
"-$	c #5E4B3D",
";$	c #59473A",
">$	c #715845",
",$	c #8E6A4E",
"'$	c #7A5C46",
")$	c #604E3E",
"!$	c #5F4B3C",
"~$	c #594537",
"{$	c #5D4B3C",
"]$	c #5C4839",
"^$	c #614E3E",
"/$	c #82664E",
"($	c #8C684D",
"_$	c #6F5440",
":$	c #634E3E",
"<$	c #5A493B",
"[$	c #6C5543",
"}$	c #564539",
"|$	c #5B493C",
"1$	c #705947",
"2$	c #6B5543",
"3$	c #5C4B3D",
"4$	c #685342",
"5$	c #665040",
"6$	c #574639",
"7$	c #67503F",
"8$	c #695342",
"9$	c #564438",
"0$	c #5C4A3C",
"a$	c #705A47",
"b$	c #665242",
"c$	c #866349",
"d$	c #89684E",
"e$	c #82644C",
"f$	c #81624A",
"g$	c #87654C",
"h$	c #745B46",
"i$	c #8D684D",
"j$	c #87684E",
"k$	c #7D6149",
"l$	c #755A46",
"m$	c #80624A",
"n$	c #88664C",
"o$	c #8C694E",
"p$	c #785C47",
"q$	c #7E5F48",
"r$	c #916A4D",
"s$	c #8A684E",
"t$	c #8B674D",
"u$	c #7A5E49",
"v$	c #7D5F49",
"w$	c #84664E",
"                                                                ",
". + @ # $ % & * = - ; > , ' ) ! ~ { ] ^ / ( _ : < [ } | 1 + 2 3 ",
"4 5 6 7 8 9 0 a b c d 6 e f g h i j k l m n o p d q e i 6 r s t ",
"u v w x y z A B C D E m h g g F G H g h b I J K E L h h M H N O ",
"P Q R S T U V W X Y g h K J Z J J h K h h h h M g h g h f b `  .",
"..i +.@.#.$.%.&.*.h f =.-.g H ;.;.b >.,.e '.f ).K w e H e !.~.{.",
"].j e ^./.(._.:.<.h b [.}.|.Z B ,.1.g h h J H G G J h g H d 2.3.",
"4.5.6.7.8.9.0.a.b.e ;.c.d.e.f.g.h.i.h h h h h h G J h K h j.k.l.",
"N ; m.n.o.p.q.r.;.h s.t.u.v.w.x.y.z.A.B.C.g h g h D.B h E.) F.2 ",
"G.H.h I.J.K.L.G M.b N.O.P.Q.R.S.T.U.V.W.X.Y.J h h Z.h h e j `. +",
".+++@+#+G K $+g h h %+&+*+=+-+S.;+>+,+'+)+!+~+).E.{+B g H ]+^+/+",
"(+_+p K H H m ;.B :+<+[+}+|+1+S.2+3+4+5+6+7+8+;.9+0+h h b #+a+b+",
"c+d+e f h g ,.h h G e+f+g+h+i+j+k+l+m+n+o+p+q+r+X ;.e M s+t+u+v+",
"w+x+f f h h ,.H h h G y+z+A+B+C+D+E+F+G+H+I+%.J+*.h h h h i K+{.",
"L+j b $+K B B B w h h e M+N+O+P+Q+R+S+T+U+(._.:.V+h g M H e M W+",
"f e w g e e L h G B n X+Y+Z+`+ @.@+@@@#@$@%@&@*@;.,.F h e m =@-@",
";@>@e G M h h f w h ,@'@)@!@~@{@]@^@/@(@_@:@<@[@e w B h w e ] }@",
"|@1@2@f h M.H G h f 3@4@5@6@7@8@9@0@a@b@c@d@,.h h f h h H e@v f@",
"g@,.h h h@i@h K j@i@k@l@m@n@o@p@q@r@s@t@u@v@H h h h G g h b w@x@",
"y@z@#+g j@A@|.G [.B@C@D@E@F@G@H@I@J@K@L@M@L w e E Z K f b e@N@O@",
"P@Q@j ,.[.8 9 R@S@T@U@V@W@X@Y@Z@`@ #.#+#m.e J :+@#G H g J ##$#%#",
"&#*#j.=#-#;#>#8+x ,#'#)#!#~#{#{#]#^#/#(#h g h h g h J ,.#+_#:#<#",
"w+[#f R S }#|#1#2#3#4#5#6#7#8#9#0#a#b#c#;.B M J e G h H f x+L+d#",
"e#f#f s.g#h#i#j#k#l#i#m#n#o#p#q#r#s#t#u#;.Z G ,.H h K K h b v# +",
"w#x#@+#+y#z#A#B#C#D#E#B#F#G#H#I#J#K#h g g g f h h J ,.h e m L#M#",
"N#O#p P#7.Q#%@R#S#T#%@&@*@;.J G :+K G b m.,.f e h h L h h e k.U#",
"V#W#e ;.X#Y#Z#`# $.$Z#q.+$J H ;.;.B g H J g h h g h h h H < v @$",
"g@j.h h J #$K.e $$#$%$;.G f M J G g h h M J e J h ,.e f h j &$*$",
"=$-$u#J ,.'.B L :+b h ,.B J e B f :+e b f H h H h J B J B ;$>$,$",
"{.'$H.)$h H f !$h e ~${$#+h h f m H E.L #+]$f ]$~${$#+^$a x#U#/$",
"&#($_$:$N@a <$#+: [$}$|$1$2$w 3$& 4$5$6$/ | 7$8$9$0$a$b$@#c$d$f@",
"/+e$f$g$O h$;@f$d#i$s w+%#j$k$l$m$n$o$p$q$r$s$t$u$f@%#d#v$d#w$O "};
