/* XPM */
static char * dirt_xpm[] = {
"32 32 419 2",
"  	c None",
". 	c #84654D",
"+ 	c #906A4E",
"@ 	c #765A45",
"# 	c #7E6844",
"$ 	c #A08548",
"% 	c #6F5D3F",
"& 	c #5A4739",
"* 	c #5D4A3C",
"= 	c #775C46",
"- 	c #5F4D3F",
"; 	c #5B4739",
"> 	c #5C4C3E",
", 	c #775C48",
"' 	c #705844",
") 	c #614D3D",
"! 	c #5C493B",
"~ 	c #58463A",
"{ 	c #755A44",
"] 	c #695240",
"^ 	c #574538",
"/ 	c #6F5340",
"( 	c #735742",
"_ 	c #695341",
": 	c #6D5644",
"< 	c #584538",
"[ 	c #5D4C3F",
"} 	c #775D48",
"| 	c #705642",
"1 	c #665140",
"2 	c #88664D",
"3 	c #83674E",
"4 	c #86654D",
"5 	c #6E5441",
"6 	c #5F4C3D",
"7 	c #756140",
"8 	c #A58443",
"9 	c #8E7844",
"0 	c #6A553D",
"a 	c #5D4A3B",
"b 	c #5E493A",
"c 	c #4B4036",
"d 	c #5D493B",
"e 	c #5D4839",
"f 	c #604A3A",
"g 	c #624C3C",
"h 	c #614B3B",
"i 	c #5F4A3B",
"j 	c #5D493A",
"k 	c #5A4537",
"l 	c #5B493B",
"m 	c #604B3C",
"n 	c #5F4A3C",
"o 	c #604C3C",
"p 	c #5C483A",
"q 	c #5F4C3C",
"r 	c #664F3E",
"s 	c #7C5F49",
"t 	c #8D684E",
"u 	c #88694E",
"v 	c #6B5341",
"w 	c #604B3B",
"x 	c #796440",
"y 	c #9B7B42",
"z 	c #8D7241",
"A 	c #A48B48",
"B 	c #5E4939",
"C 	c #7B6841",
"D 	c #52453B",
"E 	c #5D4739",
"F 	c #624C3D",
"G 	c #5E4839",
"H 	c #604A3B",
"I 	c #604A3C",
"J 	c #5F493A",
"K 	c #634D3D",
"L 	c #614B3C",
"M 	c #634C3C",
"N 	c #80634B",
"O 	c #87694E",
"P 	c #82624B",
"Q 	c #564337",
"R 	c #7F6A41",
"S 	c #9B7E43",
"T 	c #8B6A3A",
"U 	c #A48441",
"V 	c #AF8E44",
"W 	c #9C8344",
"X 	c #74603D",
"Y 	c #644E3E",
"Z 	c #5D4738",
"` 	c #6A5442",
" .	c #7E634D",
"..	c #6C5341",
"+.	c #5F4B3B",
"@.	c #A28442",
"#.	c #674730",
"$.	c #7D5832",
"%.	c #815A32",
"&.	c #B5994B",
"*.	c #8B7744",
"=.	c #75613E",
"-.	c #735F3D",
";.	c #5C4738",
">.	c #685141",
",.	c #5F4A3A",
"'.	c #5B4638",
").	c #654E3E",
"!.	c #5D483A",
"~.	c #6B5442",
"{.	c #83654D",
"].	c #674E3D",
"^.	c #704E2D",
"/.	c #4A3629",
"(.	c #553C2B",
"_.	c #533723",
":.	c #7A5C34",
"<.	c #775C3C",
"[.	c #77623F",
"}.	c #9E8346",
"|.	c #705C3D",
"1.	c #58473B",
"2.	c #7A5F49",
"3.	c #8F6A4E",
"4.	c #7E624B",
"5.	c #58473A",
"6.	c #584335",
"7.	c #4D3121",
"8.	c #5C422F",
"9.	c #443126",
"0.	c #402D23",
"a.	c #422D21",
"b.	c #5B4738",
"c.	c #73603D",
"d.	c #A58442",
"e.	c #6E5941",
"f.	c #5A483A",
"g.	c #5E4B3C",
"h.	c #7A614C",
"i.	c #5F493B",
"j.	c #3F2E24",
"k.	c #553A29",
"l.	c #463429",
"m.	c #48362A",
"n.	c #4C3B2E",
"o.	c #634D3C",
"p.	c #76633E",
"q.	c #9A7A40",
"r.	c #8D7240",
"s.	c #52453A",
"t.	c #75603E",
"u.	c #5D4939",
"v.	c #614C3C",
"w.	c #7E5E47",
"x.	c #805F48",
"y.	c #594638",
"z.	c #614A3B",
"A.	c #3C2920",
"B.	c #503D30",
"C.	c #5A4637",
"D.	c #634C3D",
"E.	c #7D6940",
"F.	c #9A7D42",
"G.	c #8C6A3A",
"H.	c #A58542",
"I.	c #AF8F45",
"J.	c #9D8344",
"K.	c #786340",
"L.	c #9C8144",
"M.	c #6F5B3D",
"N.	c #57473A",
"O.	c #685240",
"P.	c #7D634D",
"Q.	c #8E684D",
"R.	c #654D3D",
"S.	c #604C3D",
"T.	c #5E4A3B",
"U.	c #624B3B",
"V.	c #A28441",
"W.	c #66462F",
"X.	c #BA9F4D",
"Y.	c #968146",
"Z.	c #8C7643",
"`.	c #6B553D",
" +	c #4C4036",
".+	c #5A4639",
"++	c #785D47",
"@+	c #8A694E",
"#+	c #7F624B",
"$+	c #685340",
"%+	c #664F3F",
"&+	c #4A3729",
"*+	c #563D2C",
"=+	c #896F3A",
"-+	c #A38645",
";+	c #725D3E",
">+	c #614B3A",
",+	c #78633F",
"'+	c #9A7A41",
")+	c #745F3F",
"!+	c #A48B47",
"~+	c #79663F",
"{+	c #51443A",
"]+	c #6D5745",
"^+	c #8B674C",
"/+	c #826149",
"(+	c #644D3C",
"_+	c #534032",
":+	c #5C4230",
"<+	c #443227",
"[+	c #402E24",
"}+	c #63512B",
"|+	c #A48342",
"1+	c #857143",
"2+	c #8A693A",
"3+	c #645338",
"4+	c #9E8446",
"5+	c #624D3D",
"6+	c #604E3F",
"7+	c #725642",
"8+	c #85654E",
"9+	c #89664D",
"0+	c #5E4A3C",
"a+	c #3E2E24",
"b+	c #543928",
"c+	c #433227",
"d+	c #49372A",
"e+	c #6B5A35",
"f+	c #997940",
"g+	c #8E7342",
"h+	c #A58B48",
"i+	c #7E663A",
"j+	c #5A4839",
"k+	c #B6994B",
"l+	c #765B46",
"m+	c #745844",
"n+	c #3D2B21",
"o+	c #7F6B41",
"p+	c #8B6A39",
"q+	c #AF8E45",
"r+	c #A28540",
"s+	c #675531",
"t+	c #775D3D",
"u+	c #81644D",
"v+	c #A18341",
"w+	c #805931",
"x+	c #B39747",
"y+	c #89733C",
"z+	c #433126",
"A+	c #3F2D23",
"B+	c #432E21",
"C+	c #574537",
"D+	c #84634A",
"E+	c #7E6049",
"F+	c #5A4A3C",
"G+	c #704E2E",
"H+	c #4C382B",
"I+	c #573D2D",
"J+	c #76592F",
"K+	c #71542F",
"L+	c #443327",
"M+	c #463529",
"N+	c #4B392D",
"O+	c #7D634E",
"P+	c #84654C",
"Q+	c #554437",
"R+	c #614C3D",
"S+	c #564234",
"T+	c #5B412E",
"U+	c #402E23",
"V+	c #412D20",
"W+	c #3A2920",
"X+	c #503E30",
"Y+	c #5B483A",
"Z+	c #8A674D",
"`+	c #87654D",
" @	c #796340",
".@	c #75613F",
"+@	c #77633F",
"@@	c #3F2F24",
"#@	c #453328",
"$@	c #4E3C2E",
"%@	c #5A4536",
"&@	c #765B45",
"*@	c #88684E",
"=@	c #816149",
"-@	c #544337",
";@	c #9C8245",
">@	c #61503B",
",@	c #59483B",
"'@	c #3C2A20",
")@	c #513E31",
"!@	c #6C5342",
"~@	c #83654E",
"{@	c #8B684E",
"]@	c #6A5240",
"^@	c #715A42",
"/@	c #76613E",
"(@	c #A38242",
"_@	c #5A4E38",
":@	c #68543B",
"<@	c #5C4638",
"[@	c #624B3C",
"}@	c #584537",
"|@	c #765D48",
"1@	c #916A4E",
"2@	c #88674E",
"3@	c #684F3E",
"4@	c #624C3B",
"5@	c #8C7140",
"6@	c #9F8345",
"7@	c #5F503C",
"8@	c #7A6740",
"9@	c #644D3D",
"0@	c #554337",
"a@	c #846349",
"b@	c #7E624D",
"c@	c #5A473A",
"d@	c #8C6B3B",
"e@	c #B39246",
"f@	c #B29548",
"g@	c #97783F",
"h@	c #A58543",
"i@	c #9E8445",
"j@	c #89674D",
"k@	c #7F5F47",
"l@	c #584638",
"m@	c #65452F",
"n@	c #7C5831",
"o@	c #C0A24C",
"p@	c #8D753D",
"q@	c #8C7845",
"r@	c #68513F",
"s@	c #8F694D",
"t@	c #664E3D",
"u@	c #4D392C",
"v@	c #573D2C",
"w@	c #543723",
"x@	c #7C5D31",
"y@	c #6C5331",
"z@	c #563C2B",
"A@	c #785D3D",
"B@	c #584639",
"C@	c #82624A",
"D@	c #795F4A",
"E@	c #64503F",
"F@	c #5A4436",
"G@	c #5A402D",
"H@	c #3B2920",
"I@	c #3E271B",
"J@	c #563D2B",
"K@	c #85654D",
"L@	c #836149",
"M@	c #654E3D",
"N@	c #563A29",
"O@	c #473529",
"P@	c #34261D",
"Q@	c #513726",
"R@	c #4F3C2F",
"S@	c #82644D",
"T@	c #3E2C22",
"U@	c #5E483A",
"V@	c #523F31",
"W@	c #795A45",
"X@	c #936B4E",
"Y@	c #84644B",
"Z@	c #5E4B3D",
"`@	c #5C4739",
" #	c #59473A",
".#	c #715845",
"+#	c #8E6A4E",
"@#	c #7A5C46",
"##	c #604E3E",
"$#	c #5F4B3C",
"%#	c #594537",
"&#	c #5D4B3C",
"*#	c #5C4839",
"=#	c #614E3E",
"-#	c #82664E",
";#	c #8C684D",
">#	c #6F5440",
",#	c #634E3E",
"'#	c #5A493B",
")#	c #6C5543",
"!#	c #564539",
"~#	c #5B493C",
"{#	c #705947",
"]#	c #6B5543",
"^#	c #5C4B3D",
"/#	c #685342",
"(#	c #665040",
"_#	c #574639",
":#	c #67503F",
"<#	c #695342",
"[#	c #564438",
"}#	c #5C4A3C",
"|#	c #705A47",
"1#	c #665242",
"2#	c #866349",
"3#	c #89684E",
"4#	c #82644C",
"5#	c #81624A",
"6#	c #87654C",
"7#	c #745B46",
"8#	c #8D684D",
"9#	c #87684E",
"0#	c #7D6149",
"a#	c #755A46",
"b#	c #80624A",
"c#	c #88664C",
"d#	c #8C694E",
"e#	c #785C47",
"f#	c #7E5F48",
"g#	c #916A4D",
"h#	c #8A684E",
"i#	c #8B674D",
"j#	c #7A5E49",
"k#	c #7D5F49",
"l#	c #84664E",
"                                                                ",
". + @ # $ % & * = - ; > , ' ) ! ~ { ] ^ / ( _ : < [ } | 1 + 2 3 ",
"4 5 6 7 8 9 0 a b c d 6 e f g h i j k l m n o p d q e i 6 r s t ",
"u v w x y z A B C D E m h g g F G H g h b I J K E L h h M H N O ",
"P Q R S T U V W X Y g h K J Z J J h K h h h h M g h g h f b `  .",
"..i +.@.#.$.%.&.*.h f =.-.g H ;.;.b >.,.e '.f ).K w e H e !.~.{.",
"].j e ^./.(._.:.<.h b [.}.|.Z B ,.1.g h h J H G G J h g H d 2.3.",
"4.5.6.7.8.9.0.a.b.e ;.c.d.9 e.h ,.c h h h h h h G J h K h f.g.h.",
"N ; i.j.k.l.m.n.;.h o.p.q.r.A o.C s.B =.t.g h g h u.B h v.) w.2 ",
"x.y.h z.A.B.C.G D.b E.F.G.H.I.J.-.Z h K.L.M.J h h N.h h e j O.P.",
"Q.R.S.T.G K U.g h h o.V.W.$.%.X.Y.g ,.t.d.Z.`.).v. +B g H .+++@+",
"#+$+p K H H m ;.B %+K ^.&+*+_.=+-+;+>+,+'+)+!+;.~+{+h h b T.]+^+",
"/+(+e f h g ,.h h G _+7.:+<+[+}+|+9 1+F.2+3+I.4+X ;.e M 5+6+7+8+",
"9+0+f f h h ,.H h h G a+b+c+d+e+f+g+h+@.i+j+%.k+*.h h h h i l+{.",
"m+j b U.K B B B w h h G n+_+o+F.p+H.q+r+s+(._.:.t+h g M H e M u+",
"f e w g e e L h G B g h E ,.B v+W.$.w+x+y+z+A+B+;.,.F h e m C+D+",
"E+F+e G M h h f w h h G ).h h G+H+I+_.J+K+L+M+N+e w B h w e ] O+",
"P+Q+R+f h D.H G h f H h H g S+7.T+z+U+V+W+X+,.h h f h h H Y+v Z+",
"`+,.h h  @.@h K +@.@w h h h e @@k.#@d+$@%@J H h h h G g h b &@*@",
"=@-@T.g +@L.|.G [.;@>@;.B ).,@;.'@)@,.g B g w e E Z K f b Y+!@~@",
"{@]@j ,.[.8 9 ^@/@(@_@:@h 5+ +g <@w h J H e J %+[@G H g J }@|@1@",
"2@3@f.4@,+f+5@!+x 6@7@A B 8@{+f h [@,.9@h g h h g h J ,.T.0@a@b@",
"9+c@f R S d@H.e@f@g@h@I.i@t.,.f h U.;.G ;.B M J e G h H f 0+m+j@",
"k@l@f o.v+m@n@w+o@p@n@w+k+q@H e e ,.M e ;.Z G ,.H h K K h b r@P.",
"s@t@S.T.G+u@v@w@x@y@z@w@:.A@f g h h h g g g f h h J ,.h e m B@C@",
"D@E@p F@7.G@z+H@I@J@z+A+B+;.J G %+K G b i.,.f e h h L h h e g.K@",
"L@M@e ;.@@N@c+O@P@Q@c+m.R@J H ;.;.B g H J g h h g h h h H < v S@",
"`+f.h h J T@B.e U@T@V@;.G f M J G g h h M J e J h ,.e f h j W@X@",
"Y@Z@`@J ,.'.B L %+b h ,.B J e B f %+e b f H h H h J B J B  #.#+#",
"{.@#y.##h H f $#h e %#&#T.h h f m H v.L T.*#f *#%#&#T.=#a t@K@-#",
"2@;#>#,#!@a '#T.: )#!#~#{#]#w ^#& /#(#_#/ | :#<#[#}#|#1#[@2#3#Z+",
"@+4#5#6#O 7#E+5#j@8#s 9+1@9#0#a#b#c#d#e#f#g#h#i#j#Z+1@j@k#j@l#O "};
