/* XPM */
static char *_f7b21ec936f447f9809db35c584ac69lv5MfBc8wgBDGJ7u[] = {
/* columns rows colors chars-per-pixel */
"32 32 54 1 ",
"  c #202C1F",
". c #087D2E",
"X c #076C39",
"o c #077235",
"O c #20662E",
"+ c #28642B",
"@ c #515919",
"# c #69530E",
"$ c #405E20",
"% c #8A4B00",
"& c #894C02",
"* c #884D06",
"= c #874D08",
"- c #8B4F09",
"; c #89510F",
": c #925308",
"> c #91540A",
", c #95560B",
"< c #845012",
"1 c #875215",
"2 c #825118",
"3 c #8C581A",
"4 c #8C581C",
"5 c #9C5E14",
"6 c #A26319",
"7 c #A1641B",
"8 c #A0651F",
"9 c #8D5C23",
"0 c #976226",
"q c #9E6625",
"w c #A96B22",
"e c #A96C24",
"r c #AC6E25",
"t c #A76D2A",
"y c #AA6F2B",
"u c #B1732A",
"i c #B1742C",
"p c #B4762D",
"a c #0DB70B",
"s c #0CB10E",
"d c #0BA019",
"f c #09832B",
"g c #0A9420",
"h c #0EC204",
"j c #0EC800",
"k c #18D10A",
"l c #1BD50D",
"z c #25DE17",
"x c #2BE41D",
"c c #3CD130",
"v c #35ED27",
"b c #38F12A",
"n c #3FF731",
"m c #42FA34",
/* pixels */
" cnnmmmmmmmmmmmmmmmmmmmmmmmmmmc ",
"cmkklbmmmmmmmmllmmmmmmmmblzmmmmc",
"mmjashjjjjvvhs.sjjsdvvxassajjjkn",
"mmjf@.ffffjj.@#Off.Xgjao##offakn",
"mmjf%%%%%$++%%:%%%%%++$%%%%%@slm",
"mzao%%w3%%%%:wu:%%6%%%%6w:%%.hbm",
"mls#%:pp2%%%ppt=%wpp%%,pppw%fjmm",
"mbs#%wpp2%%%0pe&:upp%%-ypp3%fjmm",
"mmao%6py<%%%*2<%,pt4%%%<22%%fjmm",
"mmxa$%,-%%%%%%%%-9=&%%%%%%%$fjmm",
"mmvj+%%%%%%%%%%%%%%%%%%%%%%+jvmm",
"mmvg+%%%%%%%%%%%%6w:%%%%%%%+jvmm",
"mmdX%%pp4&%%ppw:pppp%%%*0p:%.hmm",
"mms.%6ppt=%6pp3wpppp%%%2ppw%@smm",
"mmjf%%wup9%<44,1q222%%%<etu:#.lm",
"mmjf%%%:,-%%&&p,*6w:%%%%&=:%Oslm",
"mlsO%:=&%%%wr,4>5ppp%%-,:%%%fjmm",
"ml.#:ute<%%wpp&&0ppp6%9puw%%fjmm",
"mms@%wpp2%%<py,p4ipp8%=tpp6%.smm",
"mmh.%:p0*%%%9;rp7499*%&4pp%%Xdmm",
"mmvj+%%%%%%%%%tt8%%%%%%%%%%+gvmm",
"mmvj+%%%%%%%%%==*%%%%%%%%%%+jvmm",
"mmjf$%%%%%%%&=9-%%%%%%%%-,%$axmm",
"mmjf%%22<%%%4tp,%<2*%%%<yp6%oamm",
"mmjf%3ppy-%%ppu:&ep0%%%2ppw%#sbm",
"mmjf%wppp,%%ppw%=tpp%%%2pp:%#slm",
"mbh.%%:w6%%%%6%%:uw:%%%%3w%%oazm",
"mls@%%%%%$++%%%%%:%%++$%%%%%fjmm",
"nkaffo##oajgX.ffO#@.jjffff.@fjmm",
"nkjjjassaxvvdsjjs.shvvjjjjhsajmm",
"cmmmmzlbmmmmmmmmllmmmmmmmmblkkmc",
" cmmmmmmmmmmmmmmmmmmmmmmmmmmnnc "
};
