/* XPM */
static char *_4a268694c1d4eb2e5e234d9f0ead0dfyY8dak9vmJctEIbi[] = {
/* columns rows colors chars-per-pixel */
"32 32 41 1 ",
"  c black",
". c #202C1F",
"X c #087D2E",
"o c #076C39",
"O c #077235",
"+ c #20662E",
"@ c #28642B",
"# c #515919",
"$ c #69530E",
"% c #405E20",
"& c #8A4B00",
"* c #8B4F09",
"= c #925308",
"- c #95560B",
"; c #845012",
": c #825118",
"> c #8C581A",
", c #A26319",
"< c #976226",
"1 c #A96B22",
"2 c #A96C24",
"3 c #A76D2A",
"4 c #AA6F2B",
"5 c #B1732A",
"6 c #B4762D",
"7 c #0DB70B",
"8 c #0CB10E",
"9 c #0BA019",
"0 c #09832B",
"q c #0A9420",
"w c #0EC204",
"e c #0EC800",
"r c #18D10A",
"t c #1BD50D",
"y c #25DE17",
"u c #2BE41D",
"i c #3CD130",
"p c #35ED27",
"a c #38F12A",
"s c #3FF731",
"d c #42FA34",
/* pixels */
".issddddddddddddddddddddddddddi.",
"idrrtaddddddddttddddddddatyddddi",
"dde78weeeeppw8X8ee89ppu7887eeerd",
"dde0#X0000eeX#$+00Xoqe7O$$O007ta",
"dde0&&&&&%@@&&=&&&&&@@%&&&&&#8td",
"dy7O&&1>&&&&=25=&&,&&&&,1=&&Xwad",
"dt8$&=66:&  663  26  &-6661&0edd",
"da8$&1  :&  <62      &    >&0edd",
"dd7O&,  ;           &&    &&0edd",
"ddu7%&              &&   &&%0edd",
"ddpe@&                    &@epdd",
"ddpq@&                    &@epdd",
"dd9o&&                  <6=&Xwdd",
"dd8X&,66                 61&#8dd",
"dde0&&1                  45=$Xtd",
"dde0&                     =&+8td",
"dt8+&                     &&0edd",
"dtX$=54                 52&&0edd",
"dd8#&1                   6,&X8dd",
"ddwX&=                   6&&o9dd",
"ddpe@&&&                  &@qpdd",
"ddpe@&&&                  &@epdd",
"dde0%&                  *-&%7udd",
"dde0&&                  46,&O7dd",
"dde0&>6             &  :  1&$8ad",
"dde0&1666  &6  &  66&  :  =&$8td",
"dawX&&=1,&&&&  &  1=&&&&>2&&O7yd",
"dt8#&&&&&%@@&&&&&=&&@@%&&&&&0edd",
"sr700O$$O7eqoX00+$#Xee0000X#0edd",
"sreee7887upp98ee8X8waaeeeew87edd",
"iddddytaddddddddttddddddddatrrdi",
".iddddddddddddddddddddddddddadi."
};
