/* XPM */
static char * exit_xpm[] = {
"32 32 31 1",
" 	c #7C6A5A",
".	c #655D45",
"+	c #B2AC7D",
"@	c #968743",
"#	c #795A49",
"$	c #4D4237",
"%	c #4F453C",
"&	c #46392E",
"*	c #0E0000",
"=	c #120000",
"-	c #170000",
";	c #190000",
">	c #150000",
",	c #110000",
"'	c #140000",
")	c #1F0000",
"!	c #0F0000",
"~	c #1D0000",
"{	c #1A0000",
"]	c #572300",
"^	c #220100",
"/	c #200000",
"(	c #582000",
"_	c #1C0000",
":	c #310600",
"<	c #4F1D00",
"[	c #380E00",
"}	c #4C1D00",
"|	c #544E35",
"1	c #220000",
"2	c #36302D",
"   ..++..  @@##    ##@@  ..++.. ",
"   ..++..  @@##    ##@@  ..++.. ",
"$$$@@@@..@@@@........@@@@..@@@@$",
"$$$@@@@..@@@@........@@@@..@@@@$",
"%..&&@@*=&&..&&@@@@&&..&&-;@@&&.",
"%..&&@@->&&..&&@@@@&&..&&>,@@&&.",
"+..@@&&-'-=>)',=';;--'>=='-&&@@.",
"+..@@&&=>,!!>-~-',------='-&&@@.",
".@@@@{>'--;==>-;--==>;-;-==--@@@",
".@@@@,!={=,=---,!,-;','-----,@@@",
"@~>&&{;;--;-';-{>;'=,>-~;-=;>&&]",
"@^!&&>>!=){,=---=->>-/>*,=--=&&(",
"._,>-;'--=!,_;{,'--'==-;=!,{;>:<",
".=>>--'>---'=='=;_{--;-;-----'[}",
"&||##===>-->>-;>!'-{='-'>-;{>##|",
"&||##,--==;-'',!'-;--'>--';-,##|",
"&&&..-->>--=~----{!!;>,,;>=->..&",
"&&&..{>=->>->;''->;===--->-->..&",
"@..  --{-------------'>---=;-  .",
"@..  '==>;'!=~{=!'-;=;>,,,{>=  .",
"@@@##&&1>!,=-{-;=>-'>,');=>&&##@",
"@@@##&&'-);-,>'>-;'_-;--;-'&&##@",
"...@@@@==-;--''>-;!=!={',=-@@@@.",
"...@@@@=;!!,;;>,,'{,!,='>-{@@@@.",
"@++..@@&&222222####222222&&@@..+",
"@++..@@&&222222####222222&&@@..+",
"@%%..&&@@##&&..@@&&..&&##@@&&..%",
"@%%..&&@@##&&..@@&&..&&##@@&&..%",
"$$$$$@@@@##@@++....++@@##@@@@$$$",
"$$$$$@@@@##@@++....++@@##@@@@$$$",
"#    ..@@..  @@####@@  ..@@..   ",
"#    ..@@..  @@####@@  ..@@..   "};
