/* XPM */
static char * person_d_xpm[] = {
"32 32 485 2",
"  	c None",
". 	c #84654D",
"+ 	c #906A4E",
"@ 	c #765A45",
"# 	c #7E6844",
"$ 	c #A08548",
"% 	c #6F5D3F",
"& 	c #5A4739",
"* 	c #5D4A3C",
"= 	c #775C46",
"- 	c #5F4D3F",
"; 	c #5B4739",
"> 	c #5C4C3E",
", 	c #775C48",
"' 	c #705844",
") 	c #614D3D",
"! 	c #5C493B",
"~ 	c #58463A",
"{ 	c #755A44",
"] 	c #695240",
"^ 	c #574538",
"/ 	c #6F5340",
"( 	c #735742",
"_ 	c #695341",
": 	c #6D5644",
"< 	c #584538",
"[ 	c #5D4C3F",
"} 	c #775D48",
"| 	c #705642",
"1 	c #665140",
"2 	c #88664D",
"3 	c #83674E",
"4 	c #86654D",
"5 	c #6E5441",
"6 	c #5F4C3D",
"7 	c #756140",
"8 	c #A58443",
"9 	c #8E7844",
"0 	c #6A553D",
"a 	c #5D4A3B",
"b 	c #5E493A",
"c 	c #4B4036",
"d 	c #5D493B",
"e 	c #5D4839",
"f 	c #604A3A",
"g 	c #624C3C",
"h 	c #614B3B",
"i 	c #5F4A3B",
"j 	c #5D493A",
"k 	c #5A4537",
"l 	c #5B493B",
"m 	c #604B3C",
"n 	c #5F4A3C",
"o 	c #604C3C",
"p 	c #5C483A",
"q 	c #5F4C3C",
"r 	c #664F3E",
"s 	c #7C5F49",
"t 	c #8D684E",
"u 	c #88694E",
"v 	c #6B5341",
"w 	c #604B3B",
"x 	c #796440",
"y 	c #9B7B42",
"z 	c #8D7241",
"A 	c #A48B48",
"B 	c #5E4939",
"C 	c #7B6841",
"D 	c #52453B",
"E 	c #5D4739",
"F 	c #624C3D",
"G 	c #5E4839",
"H 	c #604A3B",
"I 	c #604A3C",
"J 	c #5F493A",
"K 	c #634D3D",
"L 	c #614B3C",
"M 	c #634C3C",
"N 	c #80634B",
"O 	c #87694E",
"P 	c #82624B",
"Q 	c #564337",
"R 	c #7F6A41",
"S 	c #9B7E43",
"T 	c #8B6A3A",
"U 	c #A48441",
"V 	c #AF8E44",
"W 	c #9C8344",
"X 	c #74603D",
"Y 	c #644E3E",
"Z 	c #5D4738",
"` 	c #5E483A",
" .	c #403025",
"..	c #34271D",
"+.	c #35281E",
"@.	c #4F3D2F",
"#.	c #6A5442",
"$.	c #7E634D",
"%.	c #6C5341",
"&.	c #5F4B3B",
"*.	c #A28442",
"=.	c #674730",
"-.	c #7D5832",
";.	c #815A32",
">.	c #B5994B",
",.	c #8B7744",
"'.	c #75613E",
").	c #735F3D",
"!.	c #5B4637",
"~.	c #2B2017",
"{.	c #261206",
"].	c #361C0B",
"^.	c #351C0B",
"/.	c #160902",
"(.	c #423228",
"_.	c #654E3E",
":.	c #5D483A",
"<.	c #6B5442",
"[.	c #83654D",
"}.	c #674E3D",
"|.	c #704E2D",
"1.	c #4A3629",
"2.	c #553C2B",
"3.	c #533723",
"4.	c #7A5C34",
"5.	c #775C3C",
"6.	c #77623F",
"7.	c #9E8346",
"8.	c #705C3D",
"9.	c #5D4838",
"0.	c #2C2119",
"a.	c #462915",
"b.	c #5B371D",
"c.	c #4E2B14",
"d.	c #241105",
"e.	c #3D2E24",
"f.	c #554134",
"g.	c #534032",
"h.	c #544033",
"i.	c #564234",
"j.	c #574335",
"k.	c #524034",
"l.	c #715843",
"m.	c #8F6A4E",
"n.	c #7E624B",
"o.	c #58473A",
"p.	c #584335",
"q.	c #4D3121",
"r.	c #5C422F",
"s.	c #443126",
"t.	c #402D23",
"u.	c #422D21",
"v.	c #5B4738",
"w.	c #5C4738",
"x.	c #73603D",
"y.	c #A58442",
"z.	c #6E5941",
"A.	c #644228",
"B.	c #7A5031",
"C.	c #060402",
"D.	c #0B0604",
"E.	c #0A0604",
"F.	c #0B0704",
"G.	c #090604",
"H.	c #34281F",
"I.	c #7A614C",
"J.	c #5F493B",
"K.	c #3F2E24",
"L.	c #553A29",
"M.	c #463429",
"N.	c #48362A",
"O.	c #4C3B2E",
"P.	c #634D3C",
"Q.	c #76633E",
"R.	c #9A7A40",
"S.	c #8D7240",
"T.	c #957D40",
"U.	c #33271D",
"V.	c #1D170B",
"W.	c #654228",
"X.	c #99623A",
"Y.	c #BD723B",
"Z.	c #BB703A",
"`.	c #BA703A",
" +	c #AA6837",
".+	c #754E30",
"++	c #52351F",
"@+	c #22170F",
"#+	c #4D3829",
"$+	c #805F48",
"%+	c #594638",
"&+	c #614A3B",
"*+	c #3C2920",
"=+	c #503D30",
"-+	c #5A4637",
";+	c #634C3D",
">+	c #7D6940",
",+	c #9A7D42",
"'+	c #8C6A3A",
")+	c #917539",
"!+	c #715B2A",
"~+	c #160802",
"{+	c #895128",
"]+	c #A76737",
"^+	c #BE7540",
"/+	c #D78244",
"(+	c #A26031",
"_+	c #A36232",
":+	c #CD7C40",
"<+	c #C57941",
"[+	c #885B39",
"}+	c #130D08",
"|+	c #8E684D",
"1+	c #654D3D",
"2+	c #604C3D",
"3+	c #5E4A3B",
"4+	c #624B3B",
"5+	c #A28341",
"6+	c #5D402B",
"7+	c #4E361D",
"8+	c #391F0C",
"9+	c #71421F",
"0+	c #C5773E",
"a+	c #AA6634",
"b+	c #6C3F1E",
"c+	c #C6773E",
"d+	c #C97B42",
"e+	c #9E653C",
"f+	c #8D5D3A",
"g+	c #160E08",
"h+	c #7F624B",
"i+	c #685340",
"j+	c #664F3F",
"k+	c #6F4D2D",
"l+	c #231811",
"m+	c #040201",
"n+	c #764521",
"o+	c #D48043",
"p+	c #D68244",
"q+	c #D68143",
"r+	c #9D653C",
"s+	c #160E07",
"t+	c #826149",
"u+	c #644D3C",
"v+	c #413126",
"w+	c #32261C",
"x+	c #33261D",
"y+	c #31241C",
"z+	c #2B2018",
"A+	c #27170D",
"B+	c #130B06",
"C+	c #8B5229",
"D+	c #C3753D",
"E+	c #A86A3D",
"F+	c #150D08",
"G+	c #89664D",
"H+	c #5E4A3C",
"I+	c #5A4536",
"J+	c #463529",
"K+	c #201710",
"L+	c #724220",
"M+	c #9A5B2E",
"N+	c #B36F3E",
"O+	c #140D08",
"P+	c #745844",
"Q+	c #513E31",
"R+	c #0A0301",
"S+	c #603719",
"T+	c #AF6936",
"U+	c #CB7B40",
"V+	c #C0743C",
"W+	c #A06337",
"X+	c #68442A",
"Y+	c #524032",
"Z+	c #1E0E04",
"`+	c #D68144",
" @	c #9C5D2F",
".@	c #1C0D04",
"+@	c #0F0603",
"@@	c #140D07",
"#@	c #7E6049",
"$@	c #5A4A3C",
"%@	c #BF733C",
"&@	c #B16E3E",
"*@	c #A3683C",
"=@	c #B3703E",
"-@	c #D58143",
";@	c #94582C",
">@	c #543015",
",@	c #1D140E",
"'@	c #503E30",
")@	c #5A4636",
"!@	c #6C5543",
"~@	c #84654C",
"{@	c #554437",
"]@	c #534134",
"^@	c #BC7440",
"/@	c #6D3F1E",
"(@	c #271D15",
"_@	c #4C3A2D",
":@	c #5B483A",
"<@	c #8A674D",
"[@	c #87654D",
"}@	c #5F4A3A",
"|@	c #D07E43",
"1@	c #D38043",
"2@	c #D07F43",
"3@	c #453429",
"4@	c #765B45",
"5@	c #88684E",
"6@	c #816149",
"7@	c #544337",
"8@	c #513F32",
"9@	c #B5703F",
"0@	c #8B5C39",
"a@	c #C67941",
"b@	c #B8723F",
"c@	c #48372B",
"d@	c #6C5342",
"e@	c #83654E",
"f@	c #8B684E",
"g@	c #554132",
"h@	c #291E17",
"i@	c #CE7D43",
"j@	c #D28043",
"k@	c #CF7E43",
"l@	c #3A1F0C",
"m@	c #443428",
"n@	c #624B3C",
"o@	c #584537",
"p@	c #765D48",
"q@	c #916A4E",
"r@	c #88674E",
"s@	c #49372A",
"t@	c #532F15",
"u@	c #CB7A40",
"v@	c #050302",
"w@	c #3B2D22",
"x@	c #554337",
"y@	c #846349",
"z@	c #7E624D",
"A@	c #7E5D46",
"B@	c #372A22",
"C@	c #6B3E1D",
"D@	c #D37F42",
"E@	c #C0733C",
"F@	c #C6783E",
"G@	c #CD7B40",
"H@	c #A86533",
"I@	c #89674D",
"J@	c #412F22",
"K@	c #040202",
"L@	c #2C1607",
"M@	c #5A3318",
"N@	c #211004",
"O@	c #7B4823",
"P@	c #A46232",
"Q@	c #492812",
"R@	c #68513F",
"S@	c #7D634D",
"T@	c #473323",
"U@	c #301909",
"V@	c #472711",
"W@	c #512D15",
"X@	c #7D4924",
"Y@	c #B66D38",
"Z@	c #774622",
"`@	c #25180F",
" #	c #472E1D",
".#	c #322411",
"+#	c #000000",
"@#	c #40230E",
"##	c #784622",
"$#	c #844D26",
"%#	c #6E401F",
"&#	c #432510",
"*#	c #030201",
"=#	c #2D2119",
"-#	c #584639",
";#	c #82624A",
">#	c #391E0C",
",#	c #4F2C14",
"'#	c #824C26",
")#	c #2A1C12",
"!#	c #34261C",
"~#	c #3E2C23",
"{#	c #1D120C",
"]#	c #060201",
"^#	c #462611",
"/#	c #170902",
"(#	c #453529",
"_#	c #5E4B3C",
":#	c #85654D",
"<#	c #412E21",
"[#	c #311A09",
"}#	c #482812",
"|#	c #361D0B",
"1#	c #332116",
"2#	c #3E2D23",
"3#	c #47352A",
"4#	c #241A13",
"5#	c #050200",
"6#	c #3D210D",
"7#	c #4B2912",
"8#	c #82644D",
"9#	c #433023",
"0#	c #030100",
"a#	c #291407",
"b#	c #020101",
"c#	c #2C2018",
"d#	c #040100",
"e#	c #795A45",
"f#	c #936B4E",
"g#	c #765943",
"h#	c #382C23",
"i#	c #281406",
"j#	c #291E16",
"k#	c #523F32",
"l#	c #2C2118",
"m#	c #261B14",
"n#	c #1B0C03",
"o#	c #46352A",
"p#	c #59473A",
"q#	c #715845",
"r#	c #8E6A4E",
"s#	c #564030",
"t#	c #261306",
"u#	c #32251C",
"v#	c #46362B",
"w#	c #5C4B3C",
"x#	c #49392D",
"y#	c #443328",
"z#	c #4D3B2E",
"A#	c #4B3A2E",
"B#	c #381E0C",
"C#	c #180A03",
"D#	c #433428",
"E#	c #5C4839",
"F#	c #594537",
"G#	c #5D4B3C",
"H#	c #614E3E",
"I#	c #664E3D",
"J#	c #82664E",
"K#	c #6E513C",
"L#	c #36271C",
"M#	c #2F241B",
"N#	c #2C221A",
"O#	c #3C3026",
"P#	c #564539",
"Q#	c #5B493C",
"R#	c #705947",
"S#	c #6B5543",
"T#	c #5C4B3D",
"U#	c #514032",
"V#	c #31251C",
"W#	c #292019",
"X#	c #5A4534",
"Y#	c #67503F",
"Z#	c #695342",
"`#	c #564438",
" $	c #5C4A3C",
".$	c #705A47",
"+$	c #665242",
"@$	c #866349",
"#$	c #89684E",
"$$	c #8A694E",
"%$	c #82644C",
"&$	c #81624A",
"*$	c #87654C",
"=$	c #745B46",
"-$	c #8D684D",
";$	c #87684E",
">$	c #7D6149",
",$	c #755A46",
"'$	c #80624A",
")$	c #88664C",
"!$	c #8C694E",
"~$	c #785C47",
"{$	c #7E5F48",
"]$	c #916A4D",
"^$	c #8A684E",
"/$	c #8B674D",
"($	c #7A5E49",
"_$	c #7D5F49",
":$	c #84664E",
"                                                                ",
". + @ # $ % & * = - ; > , ' ) ! ~ { ] ^ / ( _ : < [ } | 1 + 2 3 ",
"4 5 6 7 8 9 0 a b c d 6 e f g h i j k l m n o p d q e i 6 r s t ",
"u v w x y z A B C D E m h g g F G H g h b I J K E L h h M H N O ",
"P Q R S T U V W X Y g h K J Z `  ...+.....@.h M g h g h f b #.$.",
"%.i &.*.=.-.;.>.,.h f '.).g H !.~.{.].^./.(.f _.K w e H e :.<.[.",
"}.j e |.1.2.3.4.5.h b 6.7.8.Z 9.0.a.b.c.d.e.f.g.g.h.i.j.f.k.l.m.",
"n.o.p.q.r.s.t.u.v.e w.x.y.9 z.f 0.A.B.c.d.C.D.D.E.E.D.F.D.G.H.I.",
"N ; J.K.L.M.N.O.w.h P.Q.R.S.T.U.V.W.X.Y.Z.`.`.`.`.`. +.+.+++@+#+",
"$+%+h &+*+=+-+G ;+b >+,+'+)+!+~+{+]+^+/+/+Y.(+_+:+/+<+[+[+.+++}+",
"|+1+2+3+G K 4+g h h P.5+6+7+8+9+0+/+/+/+/+a+b+9+c+/+d+e+f+[+.+g+",
"h+i+p K H H m w.B j+K k+l+m+n+o+p+/+/+/+/+q+o+o+p+/+/+o+r+[+.+s+",
"t+u+e J v+..w+x+x+y+z+A+B+C+D+/+/+/+/+/+/+/+/+/+/+/+/+/+d+E+.+F+",
"G+H+I+J+K+L+M+M+M+M+M+M+M+Y./+/+/+/+/+/+/+/+/+/+/+/+/+/+/+N+.+O+",
"P+j Q+R+S+T+/+/+/+/+/+/+/+/+/+/+/+/+/+/+/+U+V+V+V+V+V+V+V+W+X+O+",
"f e Y+Z+Y.`+/+/+/+/+/+/+/+/+/+/+/+/+/+/+/+ @d.d.d.d.d.d.d..@+@@@",
"#@$@=+Z+%@/+/+p+&@*@=@/+/+/+/+/+/+/+/+-@;@>@,@ .=+Y+'@g.Y+=+)@!@",
"~@{@]@Z+%@/+/+p+^@=@^+/+/+/+/+/+/+/+/+o+/@(@_@h h f h h H :@v <@",
"[@}@g.Z+%@|@d+d+o+/+1@d+d+2@/+/+/+/+/+o+/@3@H h h h G g h b 4@5@",
"6@7@8@Z+%@9@0@f+d+/+a@0@0@b@/+/+/+/+/+o+/@c@w e E Z K f b :@d@e@",
"f@g@h@Z+%@i@<+a@1@/+j@<+<+k@/+/+/+/+D+n+l@m@J j+n@G H g J o@p@q@",
"r@s@t@ @u@/+/+/+/+/+/+/+/+/+/+/+/+/+`.v@w@i.h h g h J }@3+x@y@z@",
"A@B@C@D+D@/+/+/+/+U+E@E@E@E@F@/+/+G@H@E.Q+B M J e G h H f H+P+I@",
"J@K@L@M@D+/+/+/+/+ @N@N@N@N@O@/+/+P@Q@E.Q+Z G }@H h K K h b R@S@",
"T@U@V@W@X@Y@D+Z@Z@>@`@ #.#+#@###$#%#&#*#=#=+f h h J }@h e m -#;#",
"w@>#,#,#,#'#C++#+#)#!#~#{#+#+#]#^#,#Q@]./#(#f e h h L h h e _#:#",
"<#[#}#,#,#|#+#+#+#1#2#3#4#+#+#5#6#7#,#c.d.c@h h g h h h H < v 8#",
"9#0#a#,#,#|#+#+#+#b#~.!.c#+#+#+#d#l@,#c.d.(#e J h }@e f h j e#f#",
"g#h#i#,#,#|#j#k#h@+#w+B l#+#j#=+m#n#].c.d.o#h H h J B J B p#q#r#",
"[.s#n#>#>#t#u#_#_@v+v#w#x#y#z#}@A#=#n#B#C#D#f E#F#G#3+H#a I#:#J#",
"r@K#L#M#..N#O#3+: !@P#Q#R#S#w T#& U#V#W#L#X#Y#Z#`# $.$+$n@@$#$<@",
"$$%$&$*$O =$#@&$I@-$s G+q@;$>$,$'$)$!$~${$]$^$/$($<@q@I@_$I@:$O "};
