/* XPM */
static char *_10881dd586c463c95aa9f188ec54cf4nrQpjPvrQ0kZrEDO[] = {
/* columns rows colors chars-per-pixel */
"32 32 132 2 ",
"   c #361E01",
".  c #1C290F",
"X  c #063B07",
"o  c #05360C",
"O  c #0C2110",
"+  c #073614",
"@  c #053E19",
"#  c #3C2203",
"$  c #202C1F",
"%  c #442602",
"&  c #4D2D08",
"*  c #542E02",
"=  c #4E300F",
"-  c #47390B",
";  c #5D3302",
":  c #442D12",
">  c #4E3415",
",  c #593913",
"<  c #5B3D1A",
"1  c #623602",
"2  c #643904",
"3  c #6D3D03",
"4  c #6A3D09",
"5  c #723F02",
"6  c #623F15",
"7  c #0C4907",
"8  c #075001",
"9  c #085504",
"0  c #074C1A",
"q  c #175412",
"w  c #185713",
"e  c #1A5D15",
"r  c #086601",
"t  c #0B7F02",
"y  c #0A7808",
"u  c #1C6216",
"i  c #1C6F15",
"p  c #1F6E18",
"a  c #22781B",
"s  c #225425",
"d  c #265927",
"f  c #275C29",
"g  c #3E5920",
"h  c #086021",
"j  c #0A6D29",
"k  c #1F602C",
"l  c #097927",
"z  c #0A762D",
"x  c #0A7D2C",
"c  c #076334",
"v  c #0A6735",
"b  c #076E33",
"n  c #097337",
"m  c #0B7E30",
"M  c #53420B",
"N  c #4D5319",
"B  c #515A1B",
"V  c #614C0E",
"C  c #754002",
"Z  c #7C4402",
"A  c #78460A",
"S  c #7F4A0A",
"D  c #6E4412",
"F  c #624D10",
"G  c #65431A",
"H  c #7E4E16",
"J  c #744B1A",
"K  c #7A4E1B",
"L  c #665111",
"P  c #6A5410",
"I  c #252B42",
"U  c #3A4467",
"Y  c #A32732",
"T  c #814702",
"R  c #844902",
"E  c #894D03",
"W  c #804A0A",
"Q  c #8D591C",
"!  c #935E1E",
"~  c #835621",
"^  c #875923",
"/  c #946020",
"(  c #E43D44",
")  c #09870B",
"_  c #0B9901",
"`  c #0D9A0E",
"'  c #0C9E1B",
"]  c #23821C",
"[  c #268B1E",
"{  c #0EAD06",
"}  c #0DAE0E",
"|  c #0EBC02",
" . c #0DB50D",
".. c #11BE03",
"X. c #0FA911",
"o. c #0FB110",
"O. c #0C8C20",
"+. c #0B832D",
"@. c #2C9B23",
"#. c #2CA023",
"$. c #30AB27",
"%. c #30B126",
"&. c #33BB29",
"*. c #0FC502",
"=. c #0EC800",
"-. c #10C303",
";. c #10C802",
":. c #1AD30C",
">. c #1BC610",
",. c #25D617",
"<. c #25DE17",
"1. c #26DF18",
"2. c #2CE31E",
"3. c #31CD26",
"4. c #37C82C",
"5. c #39D32E",
"6. c #36DF28",
"7. c #3CD130",
"8. c #35EA27",
"9. c #37EA29",
"0. c #36ED28",
"q. c #38ED2A",
"w. c #38F12A",
"e. c #3FF731",
"r. c #41F435",
"t. c #42FA34",
"y. c #43FA35",
"u. c #43F936",
"i. c #44FA37",
"p. c #FDAE35",
"a. c #C0CCDC",
"s. c #ECF0F1",
/* pixels */
"$ 7.w.e.t.t.t.t.r.U U U U U U U U U U U U U U i.i.i.e.e.e.i.7.$ ",
"7.t.:.:.:.w.i.i.e.U U U U U U U U U U U U U U r.q.:.2.e.i.e.i.7.",
"t.t.=. .o.-.;.U U U U U U U U U U U U U U U U U U X.o.;.=.=.:.e.",
"t.t.=.+.B x x U U U U U U U U U U U U U U U U U U L n +.+. .:.e.",
"t.t.=.+.E E Z U U U U U U U U U U U U U U U U U U S T E B o.:.e.",
"t.1. .n E Z I I a.U U U U U U U U U U U U U U a.I I R E +.*.w.e.",
"t.:. .P T W I I I U U U U U U U U U U U U U U I I I / W +.;.e.i.",
"t.w.o.P T ^ I I I I a.a.U U a.a.a.a.a.a.a.a.I I I I J A +.;.i.e.",
"t.t. .b Z H I I I I I I I I I I I I I I I I I I I I 3 Z x =.e.t.",
"t.t.1. .g 2 I I I I I I I I I I I I I I I I I I I I 1 g x =.t.t.",
"t.t.q...s 1 I I I I I I I I I I I I I I I I I I I I ; d | 9.t.t.",
"t.i.9.O.s ; I I I I I I I I I I I I I I I I I I I I ; s | 9.t.t.",
"t.t.' c 5 ; I I I I I I I I I I I I I I I I I I I I 2 4 z | t.t.",
"t.t. .n 5 D I I I I I I I I I I I I I I I I I I I I J C N o.t.t.",
"t.i.-.l 5 ; I I I I I I I I I I I I I I I I I I I I J A F +.:.t.",
"t.t.;.l 5 ; I I I I I I I I I I I I I I I I I I I I 2 5 k o.:.t.",
"e.:.o.k C 2 I I I I I I I I I I I I I I I I I I I I ; 5 l ;.t.t.",
"t.:.m F A K < I I I I I I I I I I I I I I I I I I , 1 5 l ;.i.t.",
"i.e.o.N C J < > I I I I I I I I I I I I I I I I > 6 D 5 z X.t.t.",
"i.i.| z C 4 G : ( ( ( I I I I I I I I I I ( ( ( , G 1 5 v ' t.t.",
"e.e.w.*.d 2 * % ( ( ( ( ( ( ( ( ( ( ( ( ( ( ( ( % * 3 f O.8.i.t.",
"i.i.w.-.f 3 ; ( ( ( ( ( ( ( ( ( ( ( ( ( ( ( ( ( ( * C k ;.0.t.t.",
"t.t.*.+.N C 1 ( ( ( ( ( ( ( ( ( ( ( ( ( ( ( ( ( ( D C N  .2.t.t.",
"t.t.=.+.R 5 V p.p.p.Y Y ( ( ( ( ( ( ( ( Y Y ( ( ( Q Q E n  .t.t.",
"t.t.=.+.S K ^ p.p.p.Y Y Y Y Y Y Y Y Y Y Y Y p.p.p.~ / T P  .w.t.",
"t.t.=.+.Z ! Q G > # ( ( Y Y Y Y Y Y Y Y ( Y p.p.p.K S T P  .:.t.",
"t.w.-.m R C 4 < &   ( ( ( ( ( ( ( ( ( ( ( Y Y % > K C R n  .2.e.",
"t.:.o.B E C 2 * % . ( ( ( ( ( ( ( ( ( ( ( ( (   & 1 C R +.=.t.t.",
"w.:. .+.l c M - 0 7 8 o p.p.p.p.O p.p.p.p.p.+ @ 0 h j N +.=.t.t.",
"t.:.=.=.=.X.` ) y ] i u a.a.a.a.X p.p.p.p.q 9 r t _ { X. .=.t.t.",
"5.t.t.t.r.,.>.3.&.@.] p e w q q 7 p.p.p.p.u a @.$.7.9.:.:.:.t.5.",
"$ 5.t.t.t.r.r.r.5.&.@.] p u u e w s.s.s.s.i [ $.4.6.r.i.w.t.7.$ "
};
