/* XPM */
static char * person_a_xpm[] = {
"32 32 523 2",
"  	c None",
". 	c #84654D",
"+ 	c #906A4E",
"@ 	c #765A45",
"# 	c #7E6844",
"$ 	c #A08548",
"% 	c #6F5D3F",
"& 	c #5A4739",
"* 	c #5D4A3C",
"= 	c #775C46",
"- 	c #5F4D3F",
"; 	c #5B4739",
"> 	c #5C4C3E",
", 	c #775C48",
"' 	c #705844",
") 	c #614D3D",
"! 	c #5C493B",
"~ 	c #58463A",
"{ 	c #755A44",
"] 	c #695240",
"^ 	c #574538",
"/ 	c #6F5340",
"( 	c #735742",
"_ 	c #695341",
": 	c #6D5644",
"< 	c #584538",
"[ 	c #5D4C3F",
"} 	c #775D48",
"| 	c #705642",
"1 	c #665140",
"2 	c #88664D",
"3 	c #83674E",
"4 	c #86654D",
"5 	c #6E5441",
"6 	c #5F4C3D",
"7 	c #756140",
"8 	c #A58443",
"9 	c #8E7844",
"0 	c #6A553D",
"a 	c #5D4A3B",
"b 	c #5E493A",
"c 	c #4B4036",
"d 	c #5D493B",
"e 	c #5D4839",
"f 	c #604A3A",
"g 	c #624C3C",
"h 	c #614B3B",
"i 	c #5F4A3B",
"j 	c #5D493A",
"k 	c #5A4537",
"l 	c #5B493B",
"m 	c #604B3C",
"n 	c #5F4A3C",
"o 	c #604C3C",
"p 	c #5C483A",
"q 	c #5F4C3C",
"r 	c #664F3E",
"s 	c #7C5F49",
"t 	c #8D684E",
"u 	c #88694E",
"v 	c #6B5341",
"w 	c #604B3B",
"x 	c #796440",
"y 	c #9B7B42",
"z 	c #8D7241",
"A 	c #A48B48",
"B 	c #5E4939",
"C 	c #7B6841",
"D 	c #52453B",
"E 	c #5D4739",
"F 	c #624C3D",
"G 	c #5E4839",
"H 	c #604A3B",
"I 	c #604A3C",
"J 	c #5F493A",
"K 	c #634D3D",
"L 	c #614B3C",
"M 	c #634C3C",
"N 	c #80634B",
"O 	c #87694E",
"P 	c #82624B",
"Q 	c #564337",
"R 	c #7F6A41",
"S 	c #9B7E43",
"T 	c #8B6A3A",
"U 	c #A48441",
"V 	c #AF8E44",
"W 	c #9C8344",
"X 	c #74603D",
"Y 	c #644E3E",
"Z 	c #4F3D2F",
"` 	c #35281E",
" .	c #32251D",
"..	c #31241B",
"+.	c #403025",
"@.	c #6A5442",
"#.	c #7E634D",
"$.	c #6C5341",
"%.	c #5F4B3B",
"&.	c #A28442",
"*.	c #674730",
"=.	c #7D5832",
"-.	c #815A32",
";.	c #B5994B",
">.	c #8B7744",
",.	c #56472C",
"'.	c #160902",
").	c #351C0B",
"!.	c #361C0B",
"~.	c #261206",
"{.	c #2B2017",
"].	c #685141",
"^.	c #5F4A3A",
"/.	c #5B4638",
"(.	c #654E3E",
"_.	c #5D483A",
":.	c #6B5442",
"<.	c #83654D",
"[.	c #674E3D",
"}.	c #564234",
"|.	c #644528",
"1.	c #412F24",
"2.	c #4B3425",
"3.	c #4A301E",
"4.	c #6D522D",
"5.	c #6A5235",
"6.	c #534033",
"7.	c #4E3F27",
"8.	c #241105",
"9.	c #4E2B14",
"0.	c #5B371D",
"a.	c #462915",
"b.	c #2C2119",
"c.	c #57463A",
"d.	c #7A5F49",
"e.	c #8F6A4E",
"f.	c #7E624B",
"g.	c #58473A",
"h.	c #30231B",
"i.	c #070301",
"j.	c #0A0503",
"k.	c #050302",
"l.	c #050202",
"m.	c #050201",
"n.	c #0A0604",
"o.	c #090602",
"p.	c #7A5031",
"q.	c #644228",
"r.	c #4A3F35",
"s.	c #5A483A",
"t.	c #5E4B3C",
"u.	c #7A614C",
"v.	c #765B45",
"w.	c #32261D",
"x.	c #18100B",
"y.	c #52351F",
"z.	c #754E30",
"A.	c #AA6837",
"B.	c #BA703A",
"C.	c #BB703A",
"D.	c #BD723B",
"E.	c #99623A",
"F.	c #654228",
"G.	c #1D170B",
"H.	c #29221C",
"I.	c #554133",
"J.	c #75613E",
"K.	c #75603E",
"L.	c #5D4939",
"M.	c #614C3C",
"N.	c #7E5E47",
"O.	c #725440",
"P.	c #885B39",
"Q.	c #C57941",
"R.	c #D78244",
"S.	c #CD7C40",
"T.	c #A36232",
"U.	c #A26031",
"V.	c #BE7540",
"W.	c #A76737",
"X.	c #895128",
"Y.	c #160802",
"Z.	c #3D2E23",
"`.	c #695737",
" +	c #9C8144",
".+	c #6F5B3D",
"++	c #57473A",
"@+	c #685240",
"#+	c #7D634D",
"$+	c #7F5C44",
"%+	c #0D0805",
"&+	c #8D5D3A",
"*+	c #9E653C",
"=+	c #C97B42",
"-+	c #C6773E",
";+	c #71421F",
">+	c #6C3F1E",
",+	c #AA6634",
"'+	c #C5773E",
")+	c #391F0C",
"!+	c #493B24",
"~+	c #97793C",
"{+	c #8B7643",
"]+	c #6B553D",
"^+	c #4C4036",
"/+	c #5A4639",
"(+	c #785D47",
"_+	c #8A694E",
":+	c #715742",
"<+	c #0E0905",
"[+	c #9D653C",
"}+	c #D48043",
"|+	c #D68244",
"1+	c #D68143",
"2+	c #764521",
"3+	c #070502",
"4+	c #503E1E",
"5+	c #735E3E",
"6+	c #A48B47",
"7+	c #5C4738",
"8+	c #79663F",
"9+	c #51443A",
"0+	c #5E4A3B",
"a+	c #6D5745",
"b+	c #8B674C",
"c+	c #745640",
"d+	c #A86A3D",
"e+	c #C3753D",
"f+	c #8B5229",
"g+	c #221809",
"h+	c #342A1B",
"i+	c #614E23",
"j+	c #574823",
"k+	c #3E331E",
"l+	c #30241B",
"m+	c #31241C",
"n+	c #34271D",
"o+	c #423327",
"p+	c #5F4D3E",
"q+	c #725642",
"r+	c #85654E",
"s+	c #7A5B44",
"t+	c #0C0705",
"u+	c #B36F3E",
"v+	c #9A5B2E",
"w+	c #724220",
"x+	c #201710",
"y+	c #453529",
"z+	c #6F5541",
"A+	c #674E3C",
"B+	c #0B0704",
"C+	c #68442A",
"D+	c #A06337",
"E+	c #C0743C",
"F+	c #CB7B40",
"G+	c #AF6936",
"H+	c #603719",
"I+	c #0A0301",
"J+	c #81644D",
"K+	c #0F0603",
"L+	c #1C0D04",
"M+	c #9C5D2F",
"N+	c #D68144",
"O+	c #1E0E04",
"P+	c #4B3B2E",
"Q+	c #84634A",
"R+	c #7B5D47",
"S+	c #4D3F33",
"T+	c #503D30",
"U+	c #534032",
"V+	c #523F31",
"W+	c #524032",
"X+	c #2B1F17",
"Y+	c #543015",
"Z+	c #94582C",
"`+	c #D58143",
" @	c #B3703E",
".@	c #A3683C",
"+@	c #B16E3E",
"@@	c #BF733C",
"#@	c #5A4636",
"$@	c #7D634E",
"%@	c #84654C",
"&@	c #554437",
"*@	c #614C3D",
"=@	c #634C3D",
"-@	c #4C3A2E",
";@	c #6D3F1E",
">@	c #BC7440",
",@	c #5C4737",
"'@	c #8A674D",
")@	c #87654D",
"!@	c #796340",
"~@	c #75613F",
"{@	c #77633F",
"]@	c #47362A",
"^@	c #D07F43",
"/@	c #D38043",
"(@	c #D07E43",
"_@	c #664E3B",
":@	c #88684E",
"<@	c #816149",
"[@	c #544337",
"}@	c #705C3D",
"|@	c #77623F",
"1@	c #9C8245",
"2@	c #61503B",
"3@	c #433328",
"4@	c #B8723F",
"5@	c #8B5C39",
"6@	c #C67941",
"7@	c #B5703F",
"8@	c #5D4738",
"9@	c #83654E",
"0@	c #8B684E",
"a@	c #6A5240",
"b@	c #715A42",
"c@	c #76613E",
"d@	c #A38242",
"e@	c #5A4E38",
"f@	c #4C3D2A",
"g@	c #3A1F0C",
"h@	c #CF7E43",
"i@	c #D28043",
"j@	c #CE7D43",
"k@	c #35291E",
"l@	c #75553E",
"m@	c #88674E",
"n@	c #684F3E",
"o@	c #624C3B",
"p@	c #78633F",
"q@	c #997940",
"r@	c #8C7140",
"s@	c #9F8345",
"t@	c #5F503C",
"u@	c #907A3E",
"v@	c #392B21",
"w@	c #080502",
"x@	c #CB7A40",
"y@	c #532F15",
"z@	c #594535",
"A@	c #89664D",
"B@	c #5A473A",
"C@	c #8C6B3B",
"D@	c #A58542",
"E@	c #B39246",
"F@	c #B29548",
"G@	c #97783F",
"H@	c #A58543",
"I@	c #AF8F45",
"J@	c #8D753D",
"K@	c #0F0B04",
"L@	c #A86533",
"M@	c #CD7B40",
"N@	c #C6783E",
"O@	c #C0733C",
"P@	c #D37F42",
"Q@	c #6B3E1D",
"R@	c #56402E",
"S@	c #7F5F47",
"T@	c #584638",
"U@	c #634D3C",
"V@	c #A18341",
"W@	c #65452F",
"X@	c #7C5831",
"Y@	c #805931",
"Z@	c #C0A24C",
"`@	c #A28942",
" #	c #141005",
".#	c #492812",
"+#	c #A46232",
"@#	c #7B4823",
"##	c #211004",
"$#	c #5A3318",
"%#	c #2C1607",
"&#	c #080503",
"*#	c #8F694D",
"=#	c #664E3D",
"-#	c #604C3D",
";#	c #704E2E",
">#	c #4D392C",
",#	c #573D2C",
"'#	c #543723",
")#	c #7C5D31",
"!#	c #6C5331",
"~#	c #563C2B",
"{#	c #442C1B",
"]#	c #392A14",
"^#	c #050301",
"/#	c #432510",
"(#	c #6E401F",
"_#	c #844D26",
":#	c #784622",
"<#	c #40230E",
"[#	c #000000",
"}#	c #271C15",
"|#	c #2A1F17",
"1#	c #774622",
"2#	c #B66D38",
"3#	c #7D4924",
"4#	c #512D15",
"5#	c #472711",
"6#	c #301909",
"7#	c #795F4A",
"8#	c #64503F",
"9#	c #5A4436",
"0#	c #4D3121",
"a#	c #5A402D",
"b#	c #433126",
"c#	c #3B2920",
"d#	c #3E271B",
"e#	c #563D2B",
"f#	c #2D1F18",
"g#	c #170902",
"h#	c #4F2C14",
"i#	c #462611",
"j#	c #060201",
"k#	c #2D2119",
"l#	c #4C3A2D",
"m#	c #2E221A",
"n#	c #824C26",
"o#	c #391E0C",
"p#	c #836149",
"q#	c #654E3D",
"r#	c #3F2F24",
"s#	c #563A29",
"t#	c #433227",
"u#	c #473529",
"v#	c #34261D",
"w#	c #513726",
"x#	c #4B2912",
"y#	c #3D210D",
"z#	c #050200",
"A#	c #594536",
"B#	c #3E2F24",
"C#	c #361D0B",
"D#	c #482812",
"E#	c #311A09",
"F#	c #3E2C22",
"G#	c #5E483A",
"H#	c #040100",
"I#	c #2F231A",
"J#	c #32251C",
"K#	c #040302",
"L#	c #291407",
"M#	c #030100",
"N#	c #84644B",
"O#	c #5E4B3D",
"P#	c #5C4739",
"Q#	c #664F3F",
"R#	c #1B0C03",
"S#	c #261B14",
"T#	c #574335",
"U#	c #291E16",
"V#	c #32261C",
"W#	c #513E31",
"X#	c #281406",
"Y#	c #57402E",
"Z#	c #7A5C46",
"`#	c #594638",
" $	c #604E3E",
".$	c #5F4B3C",
"+$	c #594537",
"@$	c #44362B",
"#$	c #180A03",
"$$	c #381E0C",
"%$	c #4B3A2E",
"&$	c #4D3C2F",
"*$	c #443328",
"=$	c #49392D",
"-$	c #5B4839",
";$	c #403126",
">$	c #45352A",
",$	c #5C4B3C",
"'$	c #31251C",
")$	c #261306",
"!$	c #5C4836",
"~$	c #8C684D",
"{$	c #6F5440",
"]$	c #634E3E",
"^$	c #6C5342",
"/$	c #5A493B",
"($	c #6C5543",
"_$	c #564539",
":$	c #493A2F",
"<$	c #362A20",
"[$	c #34281E",
"}$	c #473A2E",
"|$	c #685342",
"1$	c #665040",
"2$	c #574639",
"3$	c #67503F",
"4$	c #695342",
"5$	c #564438",
"6$	c #5C4A3C",
"7$	c #4B3C2E",
"8$	c #31261D",
"9$	c #2F221A",
"0$	c #422F21",
"a$	c #443224",
"b$	c #6D513C",
"c$	c #82644C",
"d$	c #81624A",
"e$	c #87654C",
"f$	c #745B46",
"g$	c #7E6049",
"h$	c #89674D",
"i$	c #8D684D",
"j$	c #916A4E",
"k$	c #87684E",
"l$	c #7D6149",
"m$	c #755A46",
"n$	c #80624A",
"o$	c #88664C",
"p$	c #8C694E",
"q$	c #785C47",
"r$	c #7E5F48",
"s$	c #916A4D",
"t$	c #8A684E",
"u$	c #8B674D",
"v$	c #7A5E49",
"w$	c #7D5F49",
"x$	c #84664E",
"                                                                ",
". + @ # $ % & * = - ; > , ' ) ! ~ { ] ^ / ( _ : < [ } | 1 + 2 3 ",
"4 5 6 7 8 9 0 a b c d 6 e f g h i j k l m n o p d q e i 6 r s t ",
"u v w x y z A B C D E m h g g F G H g h b I J K E L h h M H N O ",
"P Q R S T U V W X Y g Z `  ... .+.H K h h h h M g h g h f b @.#.",
"$.i %.&.*.=.-.;.>.h f ,.'.).!.~.{.e ].^.e /.f (.K w e H e _.:.<.",
"[.j }.|.1.2.3.4.5.}.6.7.8.9.0.a.b.c.g h h J H G G J h g H d d.e.",
"f.g.h.i.j.k.l.m.n.n.n.o.8.9.p.q.b.r.h h h h h h G J h K h s.t.u.",
"v.w.x.y.z.z.A.B.B.B.B.B.C.D.E.F.G.H.I.J.K.g h g h L.B h M.) N.2 ",
"O.n.y.z.P.P.Q.R.S.T.U.D.R.R.V.W.X.Y.Z.`. +.+J h h ++h h e j @+#+",
"$+%+z.P.&+*+=+R.-+;+>+,+R.R.R.R.'+;+)+!+~+{+]+(.M.^+B g H /+(+_+",
":+<+z.P.[+}+R.R.|+}+}+1+R.R.R.R.|+}+2+3+4+5+6+7+8+9+h h b 0+a+b+",
"c+%+z.d+=+R.R.R.R.R.R.R.R.R.R.R.R.R.e+f+g+h+i+j+k+l+m+n+o+p+q+r+",
"s+t+z.u+R.R.R.R.R.R.R.R.R.R.R.R.R.R.R.D.v+v+v+v+v+v+v+w+x+y+z+<.",
"A+B+C+D+E+E+E+E+E+E+E+F+R.R.R.R.R.R.R.R.R.R.R.R.R.R.R.G+H+I+I.J+",
"I.B+K+L+8.8.8.8.8.8.8.M+R.R.R.R.R.R.R.R.R.R.R.R.R.R.R.N+D.O+P+Q+",
"R+S+T+T+I.U+U+V+W+U+X+Y+Z+`+R.R.R.R.R.R.R.R. @.@+@|+R.R.@@O+#@$@",
"%@&@*@f h =@H G h f -@l+;@}+R.R.R.R.R.R.R.R.V. @>@|+R.R.@@O+,@'@",
")@^.h h !@~@h K {@~@w ]@;@}+R.R.R.R.R.^@=+=+/@R.}+=+=+(@@@O+_@:@",
"<@[@0+g {@ +}@G |@1@2@3@;@}+R.R.R.R.R.4@5@5@6@R.=+&+5@7@@@O+8@9@",
"0@a@j ^.|@8 9 b@c@d@e@f@g@2+e+R.R.R.R.h@Q.Q.i@R./@6@Q.j@@@O+k@l@",
"m@n@s.o@p@q@r@6+x s@t@u@v@w@B.R.R.R.R.R.R.R.R.R.R.R.R.R.x@M+y@z@",
"A@B@f R S C@D@E@F@G@H@I@J@K@L@M@R.R.N@O@O@O@O@F+R.R.R.R.P@e+Q@R@",
"S@T@f U@V@W@X@Y@Z@J@X@Y@`@ #.#+#R.R.@#########M+R.R.R.R.e+$#%#&#",
"*#=#-#0+;#>#,#'#)#!#~#{#]#^#/#(#_#:#<#[#}#U+|#Y+1#1#e+2#3#4#5#6#",
"7#8#p 9#0#a#b#c#d#e#b#f#g#!..#h#i#j#[#[#k#B l#m#[#[#f+n#h#h#h#o#",
"p#q#e 7+r#s#t#u#v#w#t#v#8.9.h#x#y#z#[#[#k#h A#B#[#[#[#C#h#h#D#E#",
")@s.h h J F#T+e G#F#V+3@8.9.h#g@H#[#[#[#I#G J#K#[#[#[#C#h#h#L#M#",
"N#O#P#J ^./.B L Q#b h y+8.9.!.R#S#T#U#[#k#J V#[#}#W#U#C#h#h#X#Y#",
"<.Z#`# $h H f .$h e +$@$#$$$R#k#%$i &$*$=$-$l#;$>$,$'$)$o#o#R#!$",
"m@~${$]$^$a /$0+: ($_$:$<$[$m#}$& |$1$2$/ | 3$4$5$6$7$8$9$0$a$b$",
"_+c$d$e$O f$g$d$h$i$s A@j$k$l$m$n$o$p$q$r$s$t$u$v$'@j$h$w$h$x$O "};
