/* XPM */
static char *c963c07c8f1b4dd1cee01d82a05cb788LGxUu5jyTcY1t1Ri[] = {
/* columns rows colors chars-per-pixel */
"32 32 133 2 ",
"   c #042B0F",
".  c #1B280E",
"X  c #053917",
"o  c #372003",
"O  c #3D2101",
"+  c #3D270D",
"@  c #3E320B",
"#  c #202C1F",
"$  c #422502",
"%  c #4C2A01",
"&  c #482C0D",
"*  c #522D00",
"=  c #4A3B0A",
"-  c #553003",
";  c #5E3401",
":  c #442D13",
">  c #4D3314",
",  c #523613",
"<  c #5D3C14",
"1  c #593B18",
"2  c #613602",
"3  c #653905",
"4  c #6B3B03",
"5  c #6B3F0A",
"6  c #723F02",
"7  c #074503",
"8  c #0A4806",
"9  c #085002",
"0  c #085E08",
"q  c #074819",
"w  c #175512",
"e  c #155D10",
"r  c #1A5B15",
"t  c #37501C",
"y  c #39531E",
"u  c #096D02",
"i  c #13610D",
"p  c #0A710B",
"a  c #1B6116",
"s  c #1C6D16",
"d  c #1E6D18",
"f  c #207319",
"g  c #21781B",
"h  c #095A20",
"j  c #235526",
"k  c #255927",
"l  c #255C28",
"z  c #3E5A20",
"x  c #086722",
"c  c #1F602C",
"v  c #0A762C",
"b  c #0B7C2B",
"n  c #086536",
"m  c #086F34",
"M  c #087236",
"N  c #0B7F31",
"B  c #0A7338",
"V  c #4D551A",
"C  c #525A1B",
"Z  c #744002",
"A  c #7B4301",
"S  c #7A470A",
"D  c #7F490A",
"F  c #69520F",
"G  c #644F10",
"H  c #65431A",
"J  c #724714",
"K  c #724816",
"L  c #7B4B13",
"P  c #754B19",
"I  c #794E1B",
"U  c #6A5310",
"Y  c #79501E",
"T  c #252B43",
"R  c #3A4467",
"E  c #A32732",
"W  c #814702",
"Q  c #854A02",
"!  c #894D04",
"~  c #8C5617",
"^  c #8D5A1E",
"/  c #945E1F",
"(  c #835622",
")  c #855824",
"_  c #F77622",
"`  c #E43D44",
"'  c #F6757A",
"]  c #0A8201",
"[  c #0A880C",
"{  c #0C9702",
"}  c #0C9F1A",
"|  c #23821C",
" . c #268C1E",
".. c #0DA809",
"X. c #0EBD00",
"o. c #0DB30D",
"O. c #0EB80C",
"+. c #10B606",
"@. c #10BE02",
"#. c #10B50E",
"$. c #0EAF10",
"%. c #0EB010",
"&. c #10B312",
"*. c #0D8D20",
"=. c #0B822C",
"-. c #0E9223",
";. c #2A9A21",
":. c #2DA524",
">. c #31B527",
",. c #33BD29",
"<. c #0EC502",
"1. c #0FC800",
"2. c #11C303",
"3. c #10C802",
"4. c #1AD30C",
"5. c #24CE18",
"6. c #25DE17",
"7. c #2DE31F",
"8. c #36C82B",
"9. c #3AD32E",
"0. c #3CD130",
"q. c #35EB27",
"w. c #37E72A",
"e. c #36EC28",
"r. c #38ED29",
"t. c #39F12B",
"y. c #3EE531",
"u. c #3FF731",
"i. c #41F434",
"p. c #42FA34",
"a. c #FDAE35",
"s. c #C0CCDC",
"d. c #ECF0F1",
/* pixels */
"# 0.t.u.p.p.p.p.p.R R R R R R R R R R R R R R p.p.p.p.p.p.p.9.# ",
"0.p.4.4.4.t.p.p.i.R R R R R R R R R R R R R R i.u.4.6.p.p.p.p.0.",
"p.p.1.O.%.2.2.R R R R R R R R R R R R R R R R R R &.#.3.1.<.4.u.",
"p.p.1.=.C N b R R R R R R R R R R R R R R R R R R G m =.=.o.4.u.",
"p.p.1.=.Q Q A R R R R R R R R R R R R R R R R R R A Q ! C $.4.p.",
"p.6.O.B ! W T T s.R R R R R R R R R R R R R R s.T T W Q =.<.t.p.",
"p.4.o.U Q D T T T R R R R R R R R R R R R R R T T T / Q =.1.p.p.",
"p.t.%.U A ^ T T T T s.s.s.s.s.s.s.s.R R s.s.T T T T P A =.<.p.p.",
"p.p.O.m A L T T T T T T T T T T T T T T T T T T T T 4 A =.1.p.p.",
"p.p.7.o.t 3 T T T T T T T T T T T T T T T T T T T T 3 y b 3.p.p.",
"p.p.q.@.j 2 T T T T T T a.T T T T T T T T T T T T T 2 j 2.e.p.p.",
"p.p.q.*.j 2 T T T T T T a.T T T T T T T T T T T T T ; j @.q.p.p.",
"p.p.} n 6 ; T T T T T T a.T T T T T a.T T T T T T T 3 6 v @.p.p.",
"p.p.o.v 6 J T T T T T a.a.a.a.a.a.a.a.a.a.T T T T T P Z V $.p.p.",
"p.p.<.b 6 ; T T T T T a.T T a.a.a.a.T T a.T T T T T Y S G N 4.p.",
"p.p.<.b Z ; T T T T T T a.a.T a.a.T a.a.T T T T T T 3 Z c %.4.p.",
"p.4.$.c Z 3 T T T T T ' ' ' a.d.d.a.' ' ' T T T T T 2 6 v 3.p.p.",
"p.4.N G S Y 1 T T T T a.a.a.a.a.a.a.a.a.a.T T T T 1 2 Z b 3.p.p.",
"p.p.$.V Z P H > T T T ` ` _ _ _ _ _ _ ` ` T T T > H K 6 M $.p.p.",
"p.p.<.N Z 3 H : ` ` ` ` ` ` _ _ _ _ ` ` ` ` ` ` , H 2 Z n ..p.p.",
"p.p.e.X.k 3 - $ ` ` ` ` ` ` ` ` ` ` ` ` ` ` ` ` $ * 4 k -.r.p.p.",
"u.p.e.2.l Z ; ` ` ` ` ` ` ` ` ` ` ` ` ` ` ` ` ` ` ; 4 l 2.r.p.p.",
"p.p.1.=.z Z ; ` ` ` ` ` ` ` ` ` ` ` ` ` ` ` ` ` ` 5 Z z #.7.p.p.",
"p.p.1.=.W A < ` ` ` E E ` ` ` ` ` ` ` ` E E a.a.a.) ~ Q B O.p.p.",
"p.p.1.=.W I ( a.a.a.E E E E E E E E E E E E a.a.a.) / Q F o.r.p.",
"p.p.<.=.W / ^ a.a.a.E ` E E E E E E E E ` ` o + H ( D Q F $.4.p.",
"p.t.<.N W Z ; < & E E ` ` ` ` ` ` ` ` ` ` ` O $ , I 6 Q M O.6.p.",
"p.4.%.C D Z ; % O ` ` ` ` ` ` ` ` ` ` ` ` ` . $ * 3 A W =.1.p.p.",
"t.4.o.=.b h = @ X 7 a.a.a.a.a.  a.a.a.a.7 9 X q h x v V =.1.p.p.",
"p.4.1.3.2...[ p 0 i w a.a.a.a.7 s.s.s.s.e s u ] { ..+.o.O.1.p.p.",
"9.p.p.p.i.5.&.:.;.g a a.a.a.a.w 8 8 r a d | ;.,.9.y.w.5.4.4.p.9.",
"# 0.p.p.i.i.y.8.:. .f d.d.d.d.r a a a s | ;.>.9.y.i.p.p.t.i.0.# "
};
