/* XPM */
static char *e5c77a6cf50f4a53ed8e588728ec30832gvNRV1aMuRnYJgI[] = {
/* columns rows colors chars-per-pixel */
"32 32 139 2 ",
"   c #341D01",
".  c #063A07",
"X  c #05370A",
"o  c #3D2202",
"O  c #202C1F",
"+  c #452602",
"@  c #4C2B02",
"#  c #472908",
"$  c #512D02",
"%  c #563002",
"&  c #5B3304",
"*  c #5A370E",
"=  c #482F10",
"-  c #4F3415",
";  c #5D3B14",
":  c #5E3E19",
">  c #613602",
",  c #643804",
"<  c #6B3B02",
"1  c #693D08",
"2  c #713E01",
"3  c #14540F",
"4  c #064316",
"5  c #08581F",
"6  c #185613",
"7  c #155910",
"8  c #195C14",
"9  c #3A541D",
"0  c #086501",
"q  c #0A6B09",
"w  c #0B7E02",
"e  c #1A6414",
"r  c #1B6815",
"t  c #1E6D18",
"y  c #1F7119",
"u  c #21771B",
"i  c #227B1C",
"p  c #075528",
"a  c #235626",
"s  c #086822",
"d  c #0A762D",
"f  c #097D2E",
"g  c #096D3A",
"h  c #077235",
"j  c #087336",
"k  c #0B7F31",
"l  c #21642E",
"z  c #29622B",
"x  c #5D4A0F",
"c  c #4B5318",
"v  c #51591A",
"b  c #744002",
"n  c #7C4402",
"m  c #754409",
"M  c #6A540F",
"N  c #6C4517",
"B  c #6A471C",
"V  c #744816",
"C  c #704618",
"Z  c #744C1D",
"A  c #7A4F1B",
"S  c #655111",
"D  c #6B5411",
"F  c #7F5118",
"G  c #415F22",
"H  c #794F20",
"J  c #252B43",
"K  c #3A4467",
"L  c #A32732",
"P  c #804601",
"I  c #844902",
"U  c #8A4C01",
"Y  c #854D0B",
"T  c #8E5109",
"R  c #915208",
"E  c #825117",
"W  c #8C591C",
"Q  c #965D1A",
"!  c #9E611B",
"~  c #835824",
"^  c #8C5C23",
"/  c #905F26",
"(  c #9B6423",
")  c #9B6728",
"_  c #A16722",
"`  c #A26924",
"'  c #A96D25",
"]  c #A36C2A",
"[  c #A96F2C",
"{  c #AC722D",
"}  c #F77622",
"|  c #E43D44",
" . c #F6757A",
".. c #0C820A",
"X. c #0C9907",
"o. c #24831C",
"O. c #27921E",
"+. c #0DAF0F",
"@. c #0FB402",
"#. c #0FBD02",
"$. c #0DB40D",
"%. c #0FB80D",
"&. c #11BC07",
"*. c #0EA710",
"=. c #0CA01A",
"-. c #0FB111",
";. c #0A822C",
":. c #0B9321",
">. c #2A9822",
",. c #2CA223",
"<. c #30AF26",
"1. c #33B929",
"2. c #0EC403",
"3. c #0EC800",
"4. c #10C602",
"5. c #11C803",
"6. c #1BCA0E",
"7. c #1AD30C",
"8. c #25DE17",
"9. c #26DC18",
"0. c #2BE41D",
"q. c #32C827",
"w. c #38CF2C",
"e. c #3AD92F",
"r. c #3CD130",
"t. c #35ED27",
"y. c #36EA28",
"u. c #36ED28",
"i. c #38E82B",
"p. c #38F12A",
"a. c #3EE431",
"s. c #3FF731",
"d. c #41F634",
"f. c #42FA34",
"g. c #42FA35",
"h. c #43FA36",
"j. c #FDAE35",
"k. c #C0CCDC",
"l. c #ECF0F1",
/* pixels */
"O r.p.s.f.f.f.f.f.h.f.h.h.f.f.f.h.f.h.f.f.f.f.h.h.f.f.f.f.f.r.O ",
"r.f.7.7.7.p.f.f.f.f.K K K K K K K K K K K K K h.p.7.9.f.f.f.f.r.",
"f.f.3.%.$.2.3.5.5.4.K K K K K K K K K K K K K $.-.-.%.3.3.3.7.s.",
"f.f.3.;.v k ;.;.K K K K K K K K K K K K K K K K K D j ;.;.$.7.s.",
"f.f.3.;.U U I I K K K K K K K K K K K K K K K K K I U U v $.7.f.",
"f.8.%.h U U _ E K K K K K K K K K K K K K K K K K Y I I f 2.p.f.",
"f.7.+.M U T [ J K K K K K K K K K K K K K K K K K J ( I ;.3.f.f.",
"f.p.$.D U ( ) J k.K K K K K K K K K K K K K K K K J A I ;.3.f.f.",
"f.f.%.h U Q / J J J K K K K K K K K K K K K K k.J J 2 n ;.5.f.f.",
"f.f.0.%.G n m J J J K k.k.k.k.k.k.k.k.k.K K k.J J J < 9 f 4.f.f.",
"f.f.u.5.z b , J J J J J J J J J J J J J J J J J J J , a #.u.f.f.",
"f.f.u.:.z b & J J J J J J J J J J J J J J J J J J J > a #.y.f.f.",
"f.f.=.g P 2 A J J J J J J J J J J J J J J J J J J J , < d #.f.f.",
"f.f.+.k n E A J J J J J J J J J J J J J J J J J J : Z b c +.f.f.",
"f.f.3.;.I b C J J J J J J J J J J J J J J J J J = ; F m S k 7.f.",
"f.f.3.;.n < & J J J J J J J J J J J J J J j.J j.o # 1 b l -.7.f.",
"h.7.-.l n m * J J J J J J J J J J J J j. . . .j.# % < b f 4.g.g.",
"h.7.k D Y ^ B J J J J J J J J J J J J j. . . .l.: B < I ;.5.f.g.",
"f.h.+.v I W H : J J J J J J J J J J j.j.j.j.j.l.B ~ W n k $.f.f.",
"f.f.2.;.I m F - o o J J J J J J J J j.j.j.j.j.# Z ^ n I g =.f.f.",
"f.f.u.3.l b > @ o   J J J J J J J J } } }   o @ & b I z :.t.f.f.",
"f.f.u.3.z n < % o o o | J J J J J J | | | | o @ > m I l 4.t.f.f.",
"h.f.3.;.9 n b & $ o | | | | | | | | | | | | + $ 1 Y I c %.0.f.f.",
"f.f.3.;.U I V N ; # L L | | j.j.j.| | | L L | * ^ ] ! U j %.f.f.",
"f.f.3.;.U W ] ) F | | L L L j.j.j.L L L L | | ; ( { ' U D $.u.f.",
"f.f.3.;.U ' { ] ^ | | | | L j.j.j.L L | | | | | ] { R U M %.7.f.",
"f.p.2.k U U R ( F | | | | | j.j.j.| | | | | | | E ` U U h %.0.s.",
"f.7.-.v U U U n b | | | | | j.j.| | | | | | | > b n U U ;.3.f.s.",
"s.7.$.;.;.h S x p q | | | | | | | | | | | | 4 5 s d ;.v ;.3.s.f.",
"s.7.3.3.3.%.*.X...y t 7 X . j.j.j.j.. . 3 e 0 w X.@.%.-.%.3.f.f.",
"r.s.f.f.f.9.6.q.1.>.u 8 8 6 j.j.j.j.l.7 8 t o.,.q.a.i.7.7.7.f.r.",
"O r.f.f.f.d.s.e.1.>.o.u e 8 l.l.l.l.l.e t i >.<.w.a.s.s.s.s.r.O "
};
