/* XPM */
static char *_920c5b818e343a2e07260b46fec8d963Pl2y4G2FSkLzuTl[] = {
/* columns rows colors chars-per-pixel */
"32 32 138 2 ",
"   c #341D01",
".  c #063E05",
"X  c #063A0A",
"o  c #3D2101",
"O  c #33210A",
"+  c #202C1F",
"@  c #442602",
"#  c #4C2A03",
"$  c #472C0A",
"%  c #572F02",
"&  c #543005",
"*  c #5C3302",
"=  c #523009",
"-  c #4D3213",
";  c #5E3E18",
":  c #623602",
">  c #643905",
",  c #6B3B01",
"<  c #6B3F0A",
"1  c #723E01",
"2  c #064001",
"3  c #085A01",
"4  c #064D1A",
"5  c #165411",
"6  c #185713",
"7  c #145910",
"8  c #2E4218",
"9  c #3C561E",
"0  c #086802",
"q  c #0B7406",
"w  c #06601F",
"e  c #176111",
"r  c #1B6216",
"t  c #1D6E17",
"y  c #1F6E18",
"u  c #1E7517",
"i  c #217B1A",
"p  c #085B2C",
"a  c #235526",
"s  c #235926",
"d  c #0A752A",
"f  c #097C2D",
"g  c #0A6B39",
"h  c #077235",
"j  c #0A7E30",
"k  c #0A7438",
"l  c #23632D",
"z  c #28632B",
"x  c #51591A",
"c  c #744103",
"v  c #7D4502",
"b  c #704109",
"n  c #7B480A",
"m  c #69530E",
"M  c #6D4311",
"N  c #624E10",
"B  c #62411B",
"V  c #714917",
"C  c #7C4F17",
"Z  c #744A1B",
"A  c #7A4F1C",
"S  c #6A5411",
"D  c #405E21",
"F  c #734D20",
"G  c #795020",
"H  c #252B43",
"J  c #3A4467",
"K  c #A32732",
"L  c #814702",
"P  c #854A02",
"I  c #8A4C01",
"U  c #834C0A",
"Y  c #8D520A",
"T  c #91540B",
"R  c #875419",
"E  c #945B18",
"W  c #825522",
"Q  c #875925",
"!  c #8C5E26",
"~  c #905F25",
"^  c #936027",
"/  c #9B6220",
"(  c #986428",
")  c #9E692B",
"_  c #A16622",
"`  c #A96C22",
"'  c #A26B29",
"]  c #AB712D",
"[  c #B2752D",
"{  c #F77622",
"}  c #E43D44",
"|  c #F6757A",
" . c #0C8F02",
".. c #0A8B08",
"X. c #1C8D12",
"o. c #0F9E10",
"O. c #23831C",
"+. c #28941F",
"@. c #0DAA09",
"#. c #0FBE01",
"$. c #0DB30D",
"%. c #0FB80D",
"&. c #11BA07",
"*. c #10B60E",
"=. c #0EB210",
"-. c #10B212",
";. c #0A822C",
":. c #0C9422",
">. c #2B9D21",
",. c #2FAE26",
"<. c #31B627",
"1. c #33BE29",
"2. c #0EC303",
"3. c #0EC800",
"4. c #11C803",
"5. c #1CCE0E",
"6. c #1AD30C",
"7. c #25DE17",
"8. c #26DD18",
"9. c #2DE51F",
"0. c #37C62D",
"q. c #38CB2C",
"w. c #39D82D",
"e. c #3CD130",
"r. c #35ED27",
"t. c #37E52A",
"y. c #36EC28",
"u. c #38F12A",
"i. c #3FE531",
"p. c #3FF731",
"a. c #41F133",
"s. c #42F935",
"d. c #42FA34",
"f. c #42FA35",
"g. c #43FB35",
"h. c #FDAE35",
"j. c #C0CCDC",
"k. c #ECF0F1",
/* pixels */
"+ e.u.p.d.d.d.d.d.d.d.g.d.g.d.s.s.s.s.s.d.d.g.s.g.g.d.d.d.d.e.+ ",
"e.d.6.6.6.u.d.d.g.g.J J J J J J J J J J J J J s.u.6.7.d.d.d.d.e.",
"d.d.3.%.=.2.4.4.4.2.J J J J J J J J J J J J J $.-.=.*.3.3.3.6.a.",
"d.d.3.;.x f ;.;.J J J J J J J J J J J J J J J J J m h ;.;.$.6.p.",
"d.p.3.;.I I P P J J J J J J J J J J J J J J J J J P I I x $.6.p.",
"d.7.$.h I P _ C J J J J J J J J J J J J J J J J J U P I ;.2.u.d.",
"d.6.=.m I T ' H J J J J J J J J J J J J J J J J J H / P ;.3.d.s.",
"d.u.$.m I _ ' H J J J J J J J J J J J J J J J J j.H C v ;.3.d.d.",
"d.d.%.h I E ^ H H j.J J J J J J J J J J J J J H H H , v ;.4.d.d.",
"d.d.9.%.D v b H H H j.J J j.j.j.j.j.j.j.j.j.J H H H , 9 f 4.d.d.",
"d.d.y.3.z c : H H H H H H H H H H H H H H H H H H H > a &.y.d.d.",
"d.d.r.:.z c * H H H H H H H H H H H H H H H H H H H : a 2.y.d.d.",
"d.d.o.g n 1 G H H H H H H H H H H H H H H H H H H H > c d #.d.d.",
"d.d.=.j v R G ; H H H H H H H H H H H H H H H H H H A , x $.d.d.",
"d.d.3.;.v c V ; - H H H H H H H H H H H H H H H H H A n N j 6.d.",
"d.d.3.;.L c : & $ h.H h.H H H H H H H H H H H H H H > c l =.6.d.",
"d.6.=.l P U * & @ h.| | | h.H H H H H H H H H H H H * 1 f 4.d.d.",
"d.6.;.S Y ' Q Z $ k.| | | h.H H H H H H H H H H H H : c f 4.d.d.",
"d.s.=.x I / ( W - k.h.h.h.h.h.H H H H H H H H H H B M c f =.d.d.",
"s.s.2.j I Y ' F & @ h.h.h.h.h.H H H H H H H H O - B > 1 g o.d.d.",
"d.d.y.3.z I L 1 * @ o   { { { H H H H H H H H     & : s :.y.d.d.",
"d.d.y.3.z I P c > & o } } } } H H H H H H }     # * , s &.y.d.d.",
"g.d.3.;.D I I c , & @ } } } } } } } } } } } } @ = b c 9 -.9.d.d.",
"g.p.3.;.I P R C M * } K K } } } h.h.h.} } K K - Z ! E P k $.d.d.",
"g.p.3.;.P R [ ] ^ > } } K K K K h.h.h.K K K } } ! ' / I S =.y.g.",
"g.g.3.;.P ` [ ] ' } } } } } K K h.h.h.K } } } } ~ ' T I m %.6.d.",
"g.u.2.;.I I T ` R } } } } } } } h.h.h.} } } } } V ^ I I h %.7.g.",
"g.6.=.x I I I v c 8 } } } } } } } h.h.} } } } } : v I I ;.3.d.d.",
"p.6.$.;.;.k S N p q 0 } } } } } } } } } } } } 4 w d f x ;.3.d.d.",
"p.6.3.3.3.%.@.o...X.u e X . 2 h.h.h.h.. 5 7 3 q  .@.*.-.%.3.d.d.",
"e.p.d.d.p.8.5.w.0.>.O.y r 6 k.h.h.h.h.5 6 r i +.<.e.t.6.6.6.d.e.",
"+ e.d.d.d.d.p.i.q.,.+.i t r k.k.k.k.k.e r t O.+.1.w.a.g.u.p.e.+ "
};
