/* XPM */
static char * wall_xpm[] = {
"32 32 144 2",
"  	c None",
". 	c #141013",
"+ 	c #84654D",
"@ 	c #906A4E",
"# 	c #765A45",
"$ 	c #6B5341",
"% 	c #6D5643",
"& 	c #5D4B3C",
"* 	c #5A4739",
"= 	c #5D4A3C",
"- 	c #775C46",
"; 	c #6E5745",
"> 	c #5B4739",
", 	c #5C4C3E",
"' 	c #71413B",
") 	c #6F5340",
"! 	c #735742",
"~ 	c #695341",
"{ 	c #6D5644",
"] 	c #584538",
"^ 	c #5D4C3F",
"/ 	c #775D48",
"( 	c #705642",
"_ 	c #665140",
": 	c #88664D",
"< 	c #83674E",
"[ 	c #86654D",
"} 	c #6E5441",
"| 	c #5F4C3D",
"1 	c #5F4A3C",
"2 	c #614B3C",
"3 	c #614B3B",
"4 	c #604B3B",
"5 	c #5D4A3B",
"6 	c #5E493A",
"7 	c #5C483A",
"8 	c #BB7547",
"9 	c #604C3C",
"0 	c #5D493B",
"a 	c #5F4C3C",
"b 	c #5D4839",
"c 	c #5F4A3B",
"d 	c #664F3E",
"e 	c #7C5F49",
"f 	c #8D684E",
"g 	c #88694E",
"h 	c #624C3C",
"i 	c #644D3D",
"j 	c #614C3C",
"k 	c #5D4739",
"l 	c #634C3C",
"m 	c #604A3B",
"n 	c #80634B",
"o 	c #87694E",
"p 	c #82624B",
"q 	c #564337",
"r 	c #5E4839",
"s 	c #5A4537",
"t 	c #604A3A",
"u 	c #6A5442",
"v 	c #7E634D",
"w 	c #6C5341",
"x 	c #5E4A3B",
"y 	c #5D483A",
"z 	c #6B5442",
"A 	c #83654D",
"B 	c #674E3D",
"C 	c #5D493A",
"D 	c #7A5F49",
"E 	c #8F6A4E",
"F 	c #221C1A",
"G 	c #322B28",
"H 	c #795F4A",
"I 	c #64503F",
"J 	c #5E4B3C",
"K 	c #85654D",
"L 	c #836149",
"M 	c #654E3D",
"N 	c #5F493A",
"O 	c #82644D",
"P 	c #87654D",
"Q 	c #5A483A",
"R 	c #795A45",
"S 	c #936B4E",
"T 	c #84644B",
"U 	c #5E4B3D",
"V 	c #5C4739",
"W 	c #5F4A3A",
"X 	c #5E4939",
"Y 	c #59473A",
"Z 	c #715845",
"` 	c #8E6A4E",
" .	c #7A5C46",
"..	c #594638",
"+.	c #604E3E",
"@.	c #5F4B3C",
"#.	c #5C4839",
"$.	c #594537",
"%.	c #614E3E",
"&.	c #664E3D",
"*.	c #82664E",
"=.	c #88674E",
"-.	c #8C684D",
";.	c #6F5440",
">.	c #634E3E",
",.	c #6C5342",
"'.	c #5A493B",
").	c #6C5543",
"!.	c #564539",
"~.	c #5B493C",
"{.	c #67503F",
"].	c #695342",
"^.	c #564438",
"/.	c #5C4A3C",
"(.	c #705A47",
"_.	c #665242",
":.	c #624B3C",
"<.	c #866349",
"[.	c #89684E",
"}.	c #8A674D",
"|.	c #8A694E",
"1.	c #82644C",
"2.	c #81624A",
"3.	c #87654C",
"4.	c #745B46",
"5.	c #7E6049",
"6.	c #89674D",
"7.	c #8D684D",
"8.	c #89664D",
"9.	c #916A4E",
"0.	c #87684E",
"a.	c #7D6149",
"b.	c #755A46",
"c.	c #80624A",
"d.	c #88664C",
"e.	c #8C694E",
"f.	c #785C47",
"g.	c #7E5F48",
"h.	c #916A4D",
"i.	c #8A684E",
"j.	c #8B674D",
"k.	c #7A5E49",
"l.	c #7D5F49",
"m.	c #84664E",
"                            . . . .                             ",
"+ @ # $ % & * = - ; > , . . ' ' ' ' . . ) ! ~ { ] ^ / ( _ @ : < ",
"[ } | 1 2 3 4 5 6 7 . . ' ' 8 8 8 8 ' ' . . 9 7 0 a b c | d e f ",
"g $ c h i 3 j b . . ' ' 8 8 8 8 8 8 8 8 ' ' . . k 2 3 3 l m n o ",
"p q m 3 r s . . ' ' 8 8 8 8 ' ' ' ' 8 8 8 8 ' ' . . h 3 t 6 u v ",
"w c x h . . ' ' 8 8 8 8 ' ' 8 8 8 8 ' ' 8 8 8 8 ' ' . . b y z A ",
"B C . . ' ' 8 8 8 8 ' ' 8 8 8 8 8 8 8 8 ' ' 8 8 8 8 ' ' . . D E ",
". . ' ' 8 8 8 8 ' ' 8 8 8 8 ' ' ' ' 8 8 8 8 ' ' 8 8 8 8 ' ' . . ",
". . ' ' 8 8 8 8 ' ' 8 8 8 8 ' ' ' ' 8 8 8 8 ' ' 8 8 8 8 ' ' . . ",
". F . . ' ' 8 8 8 8 ' ' 8 8 8 8 8 8 8 8 ' ' 8 8 8 8 ' ' . . G . ",
". F G G . . ' ' 8 8 8 8 ' ' 8 8 8 8 ' ' 8 8 8 8 ' ' . . ' ' G . ",
". F G G G G . . ' ' 8 8 8 8 ' ' ' ' 8 8 8 8 ' ' . . ' ' ' ' G . ",
". F F F G G G G . . ' ' 8 8 8 8 8 8 8 8 ' ' . . ' ' ' ' G G G . ",
". F G G F F G G G G . . ' ' 8 8 8 8 ' ' . . ' ' ' ' G G ' ' G . ",
". F G G G G F F G G G G . . ' ' ' ' . . ' ' ' ' G G ' ' ' ' G . ",
". F F F G G G G F F G G G G . . . . ' ' ' ' G G ' ' ' ' G G G . ",
". F G G F F G G G G F F G G F . . G ' ' G G ' ' ' ' G G ' ' G . ",
". F G G G G F F G G G G F F F . . G G G ' ' ' ' G G ' ' ' ' G . ",
". F F F G G G G F F G G G G F . . G ' ' ' ' G G ' ' ' ' G G G . ",
". F G G F F G G G G F F G G F . . G ' ' G G ' ' ' ' G G ' ' G . ",
". F G G G G F F G G G G F F F . . G G G ' ' ' ' G G ' ' ' ' G . ",
". F F F G G G G F F G G G G F . . G ' ' ' ' G G ' ' ' ' G G G . ",
". F G G F F G G G G F F G G F . . G ' ' G G ' ' ' ' G G ' ' G . ",
". F G G G G F F G G G G F F F . . G G G ' ' ' ' G G ' ' ' ' G . ",
". . F F G G G G F F G G G G F . . G ' ' ' ' G G ' ' ' ' G G . . ",
"H I . . F F G G G G F F G G F . . G ' ' G G ' ' ' ' G G . . J K ",
"L M b N . . F F G G G G F F F . . G G G ' ' ' ' G G . . m ] $ O ",
"P Q 3 3 3 l . . F F G G G G F . . G ' ' ' ' G G . . b t 3 C R S ",
"T U V N W b X 2 . . F F G G F . . G ' ' G G . . 3 N X N X Y Z ` ",
"A  ...+.3 m t @.3 b . . F F F . . G G G . . t #.$.& x %.5 &.K *.",
"=.-.;.>.,.5 '.x { ).!.~.. . F . . G . . ) ( {.].^./.(._.:.<.[.}.",
"|.1.2.3.o 4.5.2.6.7.e 8.9.0.a.b.c.d.e.f.g.h.i.j.k.}.9.6.l.6.m.o "};
