/* XPM */
static char *_aa2b99f6be24f7ff7e5e875023d4edfJIOQ7zIpPlUsYjYQ[] = {
/* columns rows colors chars-per-pixel */
"32 32 122 2 ",
"   c #193E1B",
".  c #202C1F",
"X  c #293D15",
"o  c #353A11",
"O  c #4F2B00",
"+  c #522D01",
"@  c #44360A",
"#  c #4D300F",
"$  c #553106",
"%  c #5E3401",
"&  c #5C380E",
"*  c #5E3C13",
"=  c #653700",
"-  c #6E3C01",
";  c #723E01",
":  c #633E12",
">  c #15421F",
",  c #07531E",
"<  c #364E1B",
"1  c #086217",
"2  c #0A7614",
"3  c #074726",
"4  c #085C22",
"5  c #075629",
"6  c #225425",
"7  c #087426",
"8  c #09762A",
"9  c #097D2D",
"0  c #086636",
"q  c #086B32",
"w  c #076C39",
"e  c #077235",
"r  c #20652E",
"t  c #28642B",
"y  c #55430C",
"u  c #5B480E",
"i  c #4E5619",
"p  c #515919",
"a  c #624E0E",
"s  c #764101",
"d  c #7C4401",
"f  c #724108",
"g  c #66510F",
"h  c #69530E",
"j  c #684214",
"k  c #664319",
"l  c #6C471C",
"z  c #6F491D",
"x  c #764914",
"c  c #7E4D12",
"v  c #7D4F19",
"b  c #7D501D",
"n  c #405E20",
"m  c #7A5120",
"M  c #265C42",
"N  c #804601",
"B  c #854901",
"V  c #8A4B00",
"C  c #834B08",
"Z  c #8B4F09",
"A  c #925409",
"S  c #845012",
"D  c #825119",
"F  c #8C581B",
"G  c #9E6119",
"H  c #A26319",
"J  c #BE4A2F",
"K  c #976328",
"L  c #A56A24",
"P  c #A96B22",
"I  c #A46C29",
"U  c #AB712A",
"Y  c #B4762D",
"T  c #F77622",
"R  c #0A8500",
"E  c #0B8C02",
"W  c #0A810A",
"Q  c #0B9101",
"!  c #0C9B0C",
"~  c #0A871D",
"^  c #0D9E1B",
"/  c #0DA401",
"(  c #0CA50C",
")  c #0DAE0E",
"_  c #0EB401",
"`  c #0FBB03",
"'  c #0DB30D",
"]  c #0EB80C",
"[  c #17B10C",
"{  c #18B00C",
"}  c #0EAE10",
"|  c #0BA019",
" . c #0EB010",
".. c #22B618",
"X. c #29B41F",
"o. c #09822B",
"O. c #0A9420",
"+. c #0EC401",
"@. c #0EC800",
"#. c #10C801",
"$. c #1ACE0E",
"%. c #1AD30C",
"&. c #25DE17",
"*. c #26DC18",
"=. c #2ADD1D",
"-. c #2BE41D",
";. c #38CE2C",
":. c #39D32D",
">. c #3BDD2F",
",. c #3CD130",
"<. c #3CDD30",
"1. c #34E627",
"2. c #35ED27",
"3. c #36E528",
"4. c #38F12A",
"5. c #3DE430",
"6. c #3FF731",
"7. c #41F334",
"8. c #42FA34",
"9. c #3E8948",
"0. c #FEAE34",
"q. c #B55088",
/* pixels */
". ,.4.8.8.8.8.8.8.8.8.8.8.8.8.8.8.8.8.8.8.8.8.8.8.8.8.8.8.8.:.. ",
",.8.%.%.%.4.8.8.8.8.8.8.8.8.%.%.8.8.8.8.8.8.8.8.4.%.&.8.8.8.8.,.",
"8.8.@.]  .+.@.@.@.@.2.2.+. .9 ' @.@.' | 2.2.-.] ' ' ] @.@.+.%.6.",
"8.8.@.o.p 9 o.o.o.o.@.@.o.p g r o.o.9 w O.@.] e h h e o.o.] $.6.",
"8.8.@.o.V V V V V n t t V V A V V V V V t t n V V V V V p ' %.8.",
"8.&.] e V V P F V V V V A P Y M 9.V H Z V V V H P A V V 9 +.4.8.",
"8.%.) g V A Y Y D V V V Y Y I M M P Y Y V V A Y Y Y P V o.@.8.8.",
"8.4.' h V P Y Y b V V V K Y L M M U Y Y V V Z U Y Y F V o.@.8.8.",
"8.8.] e A H Y U S V V V Z b c M M U I F V V V S D D V V o.@.8.8.",
"8.8.-.] < V A A V V V V V d d M M D c C V V V V V V V n o.@.8.8.",
"8.8.2.@.t V V V V T T T 0.0.M M M M 0.0.0.0.0.V V V V t @.2.8.8.",
"8.8.1.^ t V V T T T J J T M M M M M M J J T T 0.0.V V t @.2.8.8.",
"8.8.| w V B T T J J T T T J T T 0.J 0.0.0.J J T T 0.Z V 9 +.8.8.",
"8.8. .9 V G T J T T T T J T T T T 0.J T T 0.0.J T T P V p ' 8.8.",
"8.8.+.o.B N T J T T T T J T T T T T J T T T 0.J T T I A h 9 %.8.",
"8.8.@.o.B T J T T T T J T T T T T T 0.J T T T 0.J T 0.C r  .%.8.",
"8.%.} r N T J T T T T J T T T T T T 0.J T T T 0.J T T d o.#.8.8.",
"8.%.9 g C T J T T T T J T T T T T T 0.J T T T 0.J T T d o.#.8.8.",
"8.8.} i d q.J T T T T J T T T T T T T J T T T 0.J T T d 8 ) 8.8.",
"8.8.` 8 s q.J T T T T J T T T T T T T J T T T 0.J T T s 0 ^ 8.8.",
"8.8.3.` 6 q.J T T T T J T T T T T T T J T T T 0.J T T 6 ~ 3.8.8.",
"8.8.1.` 6 q.J T T T T J T T T T T T T J T T T T J T T 6 ` 3.8.8.",
"8.8.+.8 < = q.J T T q.J T T T T T T T J T T T T J T = < ( =.8.8.",
"8.8.` 8 ; = q.J q.q.q.q.J T T T T T J q.T T T J q.q.x s q ' 8.8.",
"8.8.+.7 s j b z J J q.q.J q.q.q.q.q.J q.q.q.J J z b D s a ) 4.8.",
"8.8.+.9 s D m z l $ J J J J J J J J J J J J O # z m f s a } %.8.",
"8.4.+.e d ; f z : + + + + & + O $ k : $ O + + $ * v - d w ] *.8.",
"8.%.} i d s - = % X     + + + + + $ + +   > X % = - s d o.#.8.8.",
"4.%.[ 9 9 q u y 5 2 E 1 3 , , , > @ o 5 R R 4 1 1 7 8 p o.#.8.8.",
"6.%.@.#.+.' ( ! ! ..X.X.2 W Q E 2 1 W E X.X./ / _ ` ]  .] +.8.8.",
",.8.8.8.8.*.$.3.>.>.:.:.:.;.;.;.{ { ;.:.;.,.<.5.7.7.4.%.%.%.8.:.",
". ,.8.8.8.8.7.7.7.7.7.5.5.5.5.5.>.>.7.5.5.5.7.7.7.7.8.8.4.7.,.. "
};
